<svg xmlns="http://www.w3.org/2000/svg" xmlns:xlink="http://www.w3.org/1999/xlink" width="512" height="512" viewBox="0 0 512 512">
  <defs>
    <clipPath id="clip-path">
      <rect id="Rectangle_3" data-name="Rectangle 3" width="512" height="512" transform="translate(224 284)" fill="none"/>
    </clipPath>
  </defs>
  <g id="Easy_Mode" data-name="Easy Mode" transform="translate(-224 -284)" clip-path="url(#clip-path)">
    <g id="Group_1" data-name="Group 1" transform="translate(110.841 292.684)">
      <path id="Path_1" data-name="Path 1" d="M995.679,651.86,921.27,522.94a2.368,2.368,0,0,0-4.112,0L842.727,651.86a2.368,2.368,0,0,0,2.06,3.588h22.2a2.383,2.383,0,0,1,2.375,2.375v27.542a2.368,2.368,0,0,0,2.361,2.375H900.7a2.375,2.375,0,0,0,2.375-2.375V672.04a2.368,2.368,0,0,1,2.368-2.368h27.542a2.375,2.375,0,0,1,2.375,2.368v13.3a2.375,2.375,0,0,0,2.375,2.375h28.963a2.4,2.4,0,0,0,2.382-2.375V657.795a2.375,2.375,0,0,1,2.375-2.375h22.2a2.375,2.375,0,0,0,2.024-3.559ZM891.934,666.126a2.4,2.4,0,0,1-1.686.718H879.8a2.375,2.375,0,0,1,0-4.751h10.448a2.368,2.368,0,0,1,2.375,2.375A2.4,2.4,0,0,1,891.934,666.126Zm68.367,0a2.361,2.361,0,0,1-1.679.718H948.18a2.375,2.375,0,0,1,0-4.751h10.441a2.368,2.368,0,0,1,1.679,4.055Z" transform="translate(-284.953 -222.884)" fill="#f2f2f2"/>
      <path id="Path_2" data-name="Path 2" d="M358.734,653.446,284.31,524.534a2.382,2.382,0,0,0-4.119,0L215.9,635.879a196.777,196.777,0,0,0,26.932,27.779h10.456a2.375,2.375,0,0,1,1.679,4.055,2.332,2.332,0,0,1-1.679.718h-4.421a115.017,115.017,0,0,0,17.223,10.714v-5.49a2.382,2.382,0,0,1,2.382-2.375h27.535a2.375,2.375,0,0,1,2.375,2.375v13.29a2.21,2.21,0,0,0,.222,1,2.354,2.354,0,0,0,2.153,1.378h28.97a2.347,2.347,0,0,0,1.887-.955,2.275,2.275,0,0,0,.474-1.435V659.388a2.375,2.375,0,0,1,2.375-2.375h22.2a2.368,2.368,0,0,0,2.067-3.566Zm-49.2,10.908a2.39,2.39,0,0,1,1.686-.718h10.448a2.375,2.375,0,1,1,0,4.751H311.221a2.368,2.368,0,0,1-2.375-2.375,2.4,2.4,0,0,1,.689-1.658Zm-46.746-47.707a2.368,2.368,0,0,1-2.375-2.375V596.231a2.368,2.368,0,0,1,2.375-2.375H301.72a2.375,2.375,0,0,1,2.375,2.375v18.041a2.375,2.375,0,0,1-2.375,2.375Z" transform="translate(-108.042 -223.336)" fill="#f2f2f2"/>
      <path id="Path_3" data-name="Path 3" d="M710.77,362.69H618.657V342.769A4.758,4.758,0,0,0,613.892,338H586.845V316.82a3,3,0,0,0-3-3h-34.84a3,3,0,0,0-3,3v21.22H514.194a4.765,4.765,0,0,0-4.765,4.765v19.871H421.622a.969.969,0,0,0-.962.969v264.47a.969.969,0,0,0,.962.969h58.371a.969.969,0,0,0,.969-.969V592.535a.983.983,0,0,1,.976-.969h24.65a.976.976,0,0,1,.969.969v35.579a.976.976,0,0,0,.962.969h115.35a.976.976,0,0,0,.969-.969V592.535a.976.976,0,0,1,.962-.969h24.657a.976.976,0,0,1,.976.969v35.579a.976.976,0,0,0,.962.969H710.77a.969.969,0,0,0,.962-.969V363.658a.969.969,0,0,0-.962-.969ZM470.506,579.209a.962.962,0,0,1-.954.962H433.5a.969.969,0,0,1-.976-.962V566.894a.976.976,0,0,1,.976-.969h36.053a.969.969,0,0,1,.954.969Zm0-31.819a.962.962,0,0,1-.954.969H433.5a.969.969,0,0,1-.976-.969V535.082a.969.969,0,0,1,.976-.969h36.053a.962.962,0,0,1,.954.969Zm0-31.812a.969.969,0,0,1-.955.969H433.5a.976.976,0,0,1-.976-.969V503.263a.976.976,0,0,1,.976-.969h36.053a.969.969,0,0,1,.954.969Zm0-31.819a.962.962,0,0,1-.954.969H433.5a.969.969,0,0,1-.976-.969V471.451a.969.969,0,0,1,.976-.969h36.053a.962.962,0,0,1,.954.969Zm0-31.812a.969.969,0,0,1-.955.969H433.5a.976.976,0,0,1-.976-.969V439.632a.969.969,0,0,1,.976-.962h36.053a.962.962,0,0,1,.954.962Zm0-31.812a.962.962,0,0,1-.954.962H433.5a.969.969,0,0,1-.976-.962V407.82a.976.976,0,0,1,.976-.969h36.053a.969.969,0,0,1,.954.969Zm0-31.819a.962.962,0,0,1-.954.969H433.5a.969.969,0,0,1-.976-.969V376.009a.969.969,0,0,1,.976-.969h36.053a.962.962,0,0,1,.954.969ZM555.988,579.2a.969.969,0,0,1-.976.962H518.959A.962.962,0,0,1,518,579.2V566.894a.969.969,0,0,1,.962-.969h36.053a.976.976,0,0,1,.976.969Zm0-31.819a.969.969,0,0,1-.976.969H518.959a.962.962,0,0,1-.962-.969v-12.3a.962.962,0,0,1,.962-.969h36.053a.969.969,0,0,1,.976.969Zm0-31.812a.976.976,0,0,1-.976.969H518.959a.969.969,0,0,1-.962-.94V503.263a.969.969,0,0,1,.962-.969h36.053a.976.976,0,0,1,.976.969Zm0-31.819a.969.969,0,0,1-.976.969H518.959a.962.962,0,0,1-.962-.969v-12.3a.962.962,0,0,1,.962-.969h36.053a.969.969,0,0,1,.976.969Zm0-31.812a.976.976,0,0,1-.976.969H518.959a.969.969,0,0,1-.962-.969V439.632a.962.962,0,0,1,.962-.962h36.053a.969.969,0,0,1,.976.962Zm0-31.812a.969.969,0,0,1-.976.962H518.959a.962.962,0,0,1-.962-.933V407.82a.969.969,0,0,1,.962-.969h36.053a.976.976,0,0,1,.976.969Zm0-31.819a.969.969,0,0,1-.976.969H518.959a.962.962,0,0,1-.962-.969v-12.3a.961.961,0,0,1,.962-.969h36.053a.969.969,0,0,1,.976.969Zm58.4,190.886a.962.962,0,0,1-.969.962H577.344a.976.976,0,0,1-.976-.962v-12.3a.983.983,0,0,1,.976-.969H613.39a.969.969,0,0,1,.969.969Zm0-31.819a.962.962,0,0,1-.969.969H577.344a.976.976,0,0,1-.976-.969V535.082a.976.976,0,0,1,.976-.969H613.39a.962.962,0,0,1,.969.969Zm0-31.812a.969.969,0,0,1-.969.969H577.344a.983.983,0,0,1-.976-.969v-12.3a.983.983,0,0,1,.976-.969H613.39a.969.969,0,0,1,.969.969Zm0-31.819a.962.962,0,0,1-.969.969H577.344a.976.976,0,0,1-.976-.969V471.451a.976.976,0,0,1,.976-.969H613.39a.962.962,0,0,1,.969.969Zm0-31.812a.969.969,0,0,1-.969.969H577.344a.983.983,0,0,1-.976-.969v-12.3a.976.976,0,0,1,.976-.962H613.39a.962.962,0,0,1,.969.962Zm0-31.812a.962.962,0,0,1-.969.962H577.344a.976.976,0,0,1-.976-.962v-12.3a.983.983,0,0,1,.976-.969H613.39a.969.969,0,0,1,.969.969Zm0-31.819a.962.962,0,0,1-.969.969H577.344a.976.976,0,0,1-.976-.969V376.009a.976.976,0,0,1,.976-.969H613.39a.962.962,0,0,1,.969.969ZM699.87,579.187a.976.976,0,0,1-.976.962H662.841a.954.954,0,0,1-.962-.962V566.894a.962.962,0,0,1,.962-.969h36.053a.983.983,0,0,1,.976.969Zm0-31.819a.976.976,0,0,1-.976.969H662.841a.962.962,0,0,1-.962-.969V535.082a.962.962,0,0,1,.962-.969h36.053a.976.976,0,0,1,.976.969Zm0-31.812a.983.983,0,0,1-.976.969H662.841a.962.962,0,0,1-.962-.925V503.263a.962.962,0,0,1,.962-.969h36.053a.983.983,0,0,1,.976.969Zm0-31.819a.976.976,0,0,1-.976.969H662.841a.962.962,0,0,1-.962-.969V471.451a.962.962,0,0,1,.962-.969h36.053a.976.976,0,0,1,.976.969Zm0-31.812a.983.983,0,0,1-.976.969H662.841a.962.962,0,0,1-.962-.969V439.632a.955.955,0,0,1,.962-.962h36.053a.976.976,0,0,1,.976.962Zm0-31.812a.976.976,0,0,1-.976.962H662.841a.954.954,0,0,1-.962-.918V407.82a.962.962,0,0,1,.962-.969h36.053a.983.983,0,0,1,.976.969Zm0-31.819a.976.976,0,0,1-.976.969H662.841a.962.962,0,0,1-.962-.969V376.009a.962.962,0,0,1,.962-.969h36.053a.976.976,0,0,1,.976.969Z" transform="translate(-165.863 -164.168)" fill="#f2f2f2"/>
      <ellipse id="Ellipse_1" data-name="Ellipse 1" cx="381.772" cy="17.94" rx="381.772" ry="17.94" transform="translate(0 458.865)" fill="#3f3d56"/>
      <path id="Path_6" data-name="Path 6" d="M715.037,471.313c-7.133-12.357-36.6-8.719-65.741,8.123a140.059,140.059,0,0,0-14.625,9.695,126.767,126.767,0,0,0-252.945,3.186A135.981,135.981,0,0,0,363.068,479.4c-29.085-16.807-58.557-20.445-65.683-8.087s10.764,36.024,39.907,52.867c18.88,10.9,37.861,16.261,50.843,15.35a126.91,126.91,0,0,0,38.622,56.692c-25.561,3.588-44.356,15.544-44.356,29.767,0,17.036,26.99,30.857,60.28,30.857s60.28-13.821,60.28-30.857v-.136q2.684.115,5.389.122t5.389-.122v.136c0,17.036,26.99,30.857,60.28,30.857s60.28-13.821,60.28-30.857c0-14.223-18.794-26.186-44.356-29.767a126.889,126.889,0,0,0,38.593-56.584c12.695-.33,29.709-5.648,46.645-15.429C704.33,507.337,722.213,483.663,715.037,471.313Z" transform="translate(-130.61 -180.722)" fill="#25a6df"/>
      <path id="Path_7" data-name="Path 7" d="M297.385,513.794c7.133-12.357,36.6-8.719,65.741,8.123A135.8,135.8,0,0,1,381.5,534.577c.28-6.071.28.387.265-6.243a136.047,136.047,0,0,0-18.658-12.874c-29.128-16.842-58.6-20.481-65.726-8.123a13.591,13.591,0,0,0-1.213,9.616A11.483,11.483,0,0,1,297.385,513.794Z" transform="translate(-130.611 -216.744)" opacity="0.1"/>
      <path id="Path_8" data-name="Path 8" d="M848.423,513.794c-7.133-12.357-36.6-8.719-65.748,8.123-6.8,3.918-9.386,5.353-14.783,9.788-.287-6.071-.287.388-.266-6.243,5.454-4.514,8.145-6.014,15.07-10,29.178-16.842,58.615-20.481,65.748-8.123a13.591,13.591,0,0,1,1.213,9.616,11.483,11.483,0,0,0-1.234-3.158Z" transform="translate(-263.839 -216.744)" opacity="0.1"/>
      <ellipse id="Ellipse_2" data-name="Ellipse 2" cx="13.147" cy="17.216" rx="13.147" ry="17.216" transform="translate(330.613 276.677)" fill="#444053"/>
      <ellipse id="Ellipse_3" data-name="Ellipse 3" cx="13.147" cy="17.216" rx="13.147" ry="17.216" transform="translate(398.535 276.677)" fill="#444053"/>
      <path id="Path_9" data-name="Path 9" d="M641.137,585.369c0,24.715-41.284,66.351-82.942,66.351S476.81,609.143,476.81,584.45,515.7,582.3,557.319,582.3,641.137,560.647,641.137,585.369Z" transform="translate(-181.719 -237.325)" fill="#3f3d56"/>
      <path id="Path_10" data-name="Path 10" d="M493.528,596.16s74.883,16.67,137.782.474c0,0,7.7,0,2.44,8.9a14.215,14.215,0,0,1-5.741,5.4c-12.128,6.193-57.015,24.507-128.791,1.155a14.123,14.123,0,0,1-9.358-9.58C489.043,599.483,489.409,596.583,493.528,596.16Z" transform="translate(-185.305 -243.897)" fill="#f6f8fb"/>
      <path id="Path_11" data-name="Path 11" d="M541.476,389.106a126.758,126.758,0,0,1,126.53,119.239q.359-4.726.359-9.559a126.765,126.765,0,1,0-253.53,0c0,2.533.09,5.023.233,7.542A126.774,126.774,0,0,1,541.476,389.106Z" transform="translate(-164.218 -180.603)" opacity="0.1"/>
      <path id="Path_12" data-name="Path 12" d="M598.454,160.988a16.247,16.247,0,0,1-32.494,0v-.782a16.247,16.247,0,0,1,32.451,0A5.706,5.706,0,0,1,598.454,160.988Z" transform="translate(-206.894 -116.439)" fill="#3f3d56"/>
      <path id="Path_13" data-name="Path 13" d="M598.454,164.776a16.247,16.247,0,0,1-32.494,0v-.782a25.647,25.647,0,0,1,32.451,0A5.706,5.706,0,0,1,598.454,164.776Z" transform="translate(-206.894 -120.226)" opacity="0.1"/>
      <circle id="Ellipse_4" data-name="Ellipse 4" cx="25.655" cy="25.655" r="25.655" transform="translate(349.658 39.419)" fill="#3f3d56"/>
      <path id="Path_14" data-name="Path 14" d="M565.3,155.967a16.254,16.254,0,0,1,14.094-16.1,16.247,16.247,0,1,0,0,32.207A16.254,16.254,0,0,1,565.3,155.967Z" transform="translate(-205.492 -115.005)" fill="#3f3d56"/>
      <path id="Path_15" data-name="Path 15" d="M544.995,202.117a16.247,16.247,0,0,1-2.734-21.227,16.247,16.247,0,1,0,22.813,23.043,15.6,15.6,0,0,0,1.32-1.715A16.24,16.24,0,0,1,544.995,202.117Z" transform="translate(-198.623 -126.631)" fill="#3f3d56"/>
      <path id="Path_16" data-name="Path 16" d="M567.7,237.432c-1.277.431-2.7.524-3.8,1.3-2.153,1.485-2.059,4.636-1.435,7.176,1.435,5.741,5.023,11.274,10.456,13.635,3.287,1.435,6.961,1.572,10.535,1.529,3.9-.043,8.281-.538,10.693-3.588a14.085,14.085,0,0,0,2.189-5.353c1.191-4.665,2.39-9.437,1.959-14.23-2.361.208-5.023.344-6.832-1.141s-2.282-4.306-3.086-6.667a1.68,1.68,0,0,0-.6-.947,1.837,1.837,0,0,0-1.076-.165,42.511,42.511,0,0,1-7.384-.366c-1.529-.2-5.289-1.794-6.459-.452-.84.983-.309,3.947-.947,5.318a7.434,7.434,0,0,1-4.212,3.954Z" transform="translate(-205.798 -139.829)" fill="#ffc1c7"/>
      <path id="Path_17" data-name="Path 17" d="M567.7,237.432c-1.277.431-2.7.524-3.8,1.3-2.153,1.485-2.059,4.636-1.435,7.176,1.435,5.741,5.023,11.274,10.456,13.635,3.287,1.435,6.961,1.572,10.535,1.529,3.9-.043,8.281-.538,10.693-3.588a14.085,14.085,0,0,0,2.189-5.353c1.191-4.665,2.39-9.437,1.959-14.23-2.361.208-5.023.344-6.832-1.141s-2.282-4.306-3.086-6.667a1.68,1.68,0,0,0-.6-.947,1.837,1.837,0,0,0-1.076-.165,42.511,42.511,0,0,1-7.384-.366c-1.529-.2-5.289-1.794-6.459-.452-.84.983-.309,3.947-.947,5.318a7.434,7.434,0,0,1-4.212,3.954Z" transform="translate(-205.798 -139.829)" opacity="0.05"/>
      <path id="Path_18" data-name="Path 18" d="M375.11,473.551c-5.741.172-11.6-.072-17.223,1.191a4.413,4.413,0,0,0-2.784,1.435c-.825,1.177-.387,2.82.294,4.09a12.709,12.709,0,0,0,7.262,6.035c3.416,1.091,7.1.675,10.671.789a35.694,35.694,0,0,1,14.08,3.387,5.691,5.691,0,0,0,3.165.84c1.586-.244,2.576-1.83,3.165-3.323a40.54,40.54,0,0,0,1.586-5.5c.832-3.538.947-10.527-3.911-11.482-2.225-.431-4.844,1.105-6.982,1.55a51.963,51.963,0,0,1-9.322.99Z" transform="translate(-147.224 -208.535)" fill="#444053"/>
      <path id="Path_19" data-name="Path 19" d="M788.363,461.329a6.616,6.616,0,0,0,3.351-2.569c2.153-3.136,2.153-6.882,3.294-10.319,1.435-4.471,4.614-8.159,6.609-12.415a25.669,25.669,0,0,0,2.4-12.2,2.153,2.153,0,0,0-2.519-2.009,12.151,12.151,0,0,0-6.882,4.722c-2.217,2.87-3.667,6.286-5.942,9.121s-5.468,5.109-8.174,7.714c-3.394,3.272-6.057,6.832-3.028,11.08C779.931,457.942,783.332,462.98,788.363,461.329Z" transform="translate(-266.247 -194.656)" fill="#444053"/>
      <path id="Path_20" data-name="Path 20" d="M507.118,344.759A230.564,230.564,0,0,1,441.1,403.008c-7.815,4.586-15.967,8.748-22.913,14.568-5.267,4.421-9.738,9.7-14.18,14.955a3.587,3.587,0,0,0-1,1.837,3.523,3.523,0,0,0,.265,1.478c1.435,4.234,3.1,8.827,6.932,11.137,9.932-14.352,29.666-18.062,44.8-26.746,7.033-4.033,13.441-9.042,19.928-13.893q14.065-10.527,28.755-20.172c6.494-4.263,13.183-8.454,20.631-10.671,15.788-4.722,33.01,0,47.592,7.75s27.42,18.342,41.708,26.588c19.419,11.195,41.083,17.8,62.533,24.306.768-5.152,1.234-10.2,2.325-15.3-5.353-.754-10.413-2.87-15.407-4.944-5.576-2.325-11.188-4.679-16.2-8.059-3.308-2.239-6.315-4.908-9.587-7.176-7.133-5.023-15.4-8.181-22.626-13.053-9.415-6.344-16.7-15.321-25.31-22.72-3.753-3.222-7.743-6.143-11.74-9.056-4.133-3.021-8.331-6.071-13.1-7.944-5.655-2.232-11.826-2.691-17.89-3.122C533.052,341.767,519.97,340.432,507.118,344.759Z" transform="translate(-160.876 -172.058)" fill="#575a89"/>
      <circle id="Ellipse_5" data-name="Ellipse 5" cx="17.94" cy="17.94" r="17.94" transform="translate(357.014 59.512)" fill="#ffc1c7"/>
      <path id="Path_21" data-name="Path 21" d="M573.6,257.774a21.528,21.528,0,0,1-9.056-3.3,13.19,13.19,0,0,1-5.519-7.707c-.581-2.533-.258-5.267-1.277-7.65a68.488,68.488,0,0,1-10.047,4.076,16.212,16.212,0,0,0-5.554,2.454c-3.394,2.763-3.588,7.786-3.495,12.156a8.083,8.083,0,0,0,.323,2.562,6.459,6.459,0,0,0,1.4,2.11c3.689,3.947,9.422,5.583,12.917,9.724a13.843,13.843,0,0,0-3.38,7.291,25.759,25.759,0,0,1-.459,3.244,20.02,20.02,0,0,1-1.055,2.576c-2.268,5.167-2.189,11.008-2.533,16.634s-1.32,11.618-5.124,15.788c1.55,1.665,3.588,2.153,5.82,2.361s4.543-.086,6.817,0c6,.172,11.661,2.626,17.445,4.227s12.35,2.253,17.467-.883c1.794-1.1,3.315-2.612,5.117-3.7a25.194,25.194,0,0,1,7.176-2.54l.9-29.968a50.916,50.916,0,0,1,.452-6.279c1.3-8.2,6.53-15.135,11.6-21.7a19.856,19.856,0,0,0-9.107-14.783,39.01,39.01,0,0,0-7.176-3.33l-5.9-2.268a3.286,3.286,0,0,0-1.679-.316c-1.277.23-1.765,1.787-1.837,3.079-.115,2.038.187,4.083.115,6.121a8.287,8.287,0,0,1-2.024,5.633,9.732,9.732,0,0,1-3.588,2.038C579.321,256.576,576.78,258.247,573.6,257.774Z" transform="translate(-199.178 -142.912)" fill="#ff6584"/>
      <path id="Path_22" data-name="Path 22" d="M549.556,360.879a52.673,52.673,0,0,1-.2,11.984,17.9,17.9,0,0,1-5.325,10.506c-2.318,2.045-5.576,3.588-6.15,6.652a3.588,3.588,0,0,0,.158,2.009,3.818,3.818,0,0,0,4.133,1.93,9.638,9.638,0,0,0,4.306-2.253,95.106,95.106,0,0,0,7.133-6.459c2-1.945,4.076-4,4.916-6.659a16.439,16.439,0,0,0,.581-3.889c.467-7.176.589-14.352.718-21.528.086-5.224.144-10.614-1.78-15.472.287.718-6.7,1.4-7.234,1.435-3.014.266-2.44,1.507-2.268,4.349Q549.046,352.21,549.556,360.879Z" transform="translate(-198.943 -170.912)" fill="#ffc1c7"/>
      <path id="Path_23" data-name="Path 23" d="M622.946,360.879a52.677,52.677,0,0,0,.2,11.984,17.9,17.9,0,0,0,5.325,10.506c2.318,2.045,5.576,3.588,6.15,6.652a3.588,3.588,0,0,1-.158,2.009,3.818,3.818,0,0,1-4.134,1.93,9.638,9.638,0,0,1-4.306-2.253,95.112,95.112,0,0,1-7.133-6.459c-2-1.945-4.076-4-4.916-6.659a16.439,16.439,0,0,1-.581-3.889c-.466-7.176-.589-14.352-.718-21.528-.086-5.224-.143-10.614,1.78-15.472-.287.718,6.7,1.4,7.234,1.435,3.014.266,2.44,1.507,2.268,4.349Q623.484,352.21,622.946,360.879Z" transform="translate(-220.077 -170.912)" fill="#ffc1c7"/>
      <path id="Path_24" data-name="Path 24" d="M541.056,261.7c-2.533,7.478-1.507,15.788,1.084,23.229.632,1.83,1.371,3.739,1.076,5.655a17.791,17.791,0,0,1-.89,2.87,13.59,13.59,0,0,0-.388,6.968,4.362,4.362,0,0,0,.8,1.923,8.928,8.928,0,0,1,.718.832c.983,1.536-.947,3.437-.718,5.253.172,1.507,1.7,2.4,2.77,3.48,3.021,3.064,2.44,8.052,1.65,12.286,3.667-.323,6.832-3.323,10.506-3.079a6.286,6.286,0,0,1,5.411,4.169c-.136-3.552,1.127-6.581,1.435-10.126.409-4.614-2.576-8.748-4.019-13.14-2.1-6.4-.919-13.355-1.435-20.093a67.138,67.138,0,0,0-1.091-7.456c-.653-3.373-1.607-7.061-4.464-8.977C549.818,263.049,544.278,264.786,541.056,261.7Z" transform="translate(-199.449 -149.451)" opacity="0.1"/>
      <path id="Path_25" data-name="Path 25" d="M540.056,259.7c-2.533,7.478-1.507,15.788,1.084,23.229.632,1.83,1.371,3.739,1.076,5.655a17.789,17.789,0,0,1-.89,2.87,13.59,13.59,0,0,0-.388,6.968,4.362,4.362,0,0,0,.8,1.923,8.942,8.942,0,0,1,.718.832c.983,1.536-.947,3.437-.718,5.253.172,1.507,1.7,2.4,2.77,3.48,3.021,3.064,2.44,8.052,1.651,12.286,3.667-.323,6.832-3.323,10.506-3.079a6.286,6.286,0,0,1,5.411,4.169c-.136-3.552,1.127-6.581,1.435-10.126.409-4.614-2.576-8.748-4.019-13.14-2.1-6.4-.919-13.355-1.435-20.093a67.151,67.151,0,0,0-1.091-7.456c-.653-3.373-1.607-7.061-4.464-8.977C548.818,261.049,543.278,262.786,540.056,259.7Z" transform="translate(-199.167 -148.886)" fill="#ff6584"/>
      <path id="Path_26" data-name="Path 26" d="M630.337,261.7c2.533,7.478,1.507,15.788-1.084,23.229-.631,1.83-1.371,3.739-1.076,5.655a17.779,17.779,0,0,0,.89,2.87,13.592,13.592,0,0,1,.387,6.968,4.363,4.363,0,0,1-.8,1.923,8.943,8.943,0,0,0-.718.832c-.983,1.536.947,3.437.718,5.253-.172,1.507-1.7,2.4-2.77,3.48-3.021,3.064-2.44,8.052-1.651,12.286-3.667-.323-6.832-3.323-10.506-3.079a6.286,6.286,0,0,0-5.411,4.169c.136-3.552-1.127-6.581-1.435-10.126-.409-4.614,2.576-8.748,4.019-13.14,2.1-6.4.919-13.355,1.435-20.093a67.156,67.156,0,0,1,1.076-7.42c.653-3.373,1.608-7.061,4.464-8.977C621.575,263.049,627.115,264.786,630.337,261.7Z" transform="translate(-218.44 -149.451)" opacity="0.1"/>
      <path id="Path_27" data-name="Path 27" d="M631.337,259.7c2.533,7.478,1.507,15.788-1.084,23.229-.632,1.83-1.371,3.739-1.076,5.655a17.777,17.777,0,0,0,.89,2.87,13.592,13.592,0,0,1,.387,6.968,4.363,4.363,0,0,1-.8,1.923,8.937,8.937,0,0,0-.718.832c-.983,1.536.947,3.437.718,5.253-.172,1.507-1.7,2.4-2.77,3.48-3.021,3.064-2.44,8.052-1.651,12.286-3.667-.323-6.832-3.323-10.506-3.079a6.286,6.286,0,0,0-5.411,4.169c.136-3.552-1.127-6.581-1.435-10.126-.409-4.614,2.576-8.748,4.019-13.14,2.1-6.4.919-13.355,1.435-20.093a67.111,67.111,0,0,1,1.076-7.42c.653-3.373,1.607-7.061,4.464-8.977C622.575,261.049,628.115,262.786,631.337,259.7Z" transform="translate(-218.722 -148.886)" fill="#ff6584"/>
      <ellipse id="Ellipse_6" data-name="Ellipse 6" cx="21.528" cy="14.352" rx="21.528" ry="14.352" transform="translate(353.067 46.236)" fill="#3f3d56"/>
      <path id="Path_28" data-name="Path 28" d="M562.035,291.767a10.047,10.047,0,0,1,9.329-10.047h-.718a10.047,10.047,0,0,0,0,20.093,4.76,4.76,0,0,0,.718-.036A10.047,10.047,0,0,1,562.035,291.767Z" transform="translate(-205.38 -155.104)" opacity="0.05"/>
      <ellipse id="Ellipse_7" data-name="Ellipse 7" cx="7.894" cy="10.047" rx="7.894" ry="10.047" transform="translate(356.655 126.609)" fill="#ff6584"/>
      <path id="Path_29" data-name="Path 29" d="M615.929,291.767A10.046,10.046,0,0,0,606.6,281.72h.718a10.047,10.047,0,1,1,0,20.093,4.856,4.856,0,0,1-.718-.036,10.047,10.047,0,0,0,9.329-10.011Z" transform="translate(-218.37 -155.104)" opacity="0.05"/>
      <ellipse id="Ellipse_8" data-name="Ellipse 8" cx="7.894" cy="10.047" rx="7.894" ry="10.047" transform="translate(381.772 126.609)" fill="#ff6584"/>
      <path id="Path_30" data-name="Path 30" d="M579.128,202.355c-11.525,0-20.94-6.042-21.528-13.635v.718c0,7.894,9.645,14.352,21.528,14.352s21.529-6.459,21.529-14.352v-.718C600.076,196.312,590.661,202.355,579.128,202.355Z" transform="translate(-204.533 -128.842)" opacity="0.1"/>
      <path id="Path_31" data-name="Path 31" d="M377.859,129.772l-11.137,7.069,6.76-12.3a11.015,11.015,0,0,0-6.731-2.4h-.179a12.981,12.981,0,0,1-2.311-.165l-3.775,2.39,1.615-2.942a13.434,13.434,0,0,1-6.6-5.023l-6.753,4.306,4.291-7.772c-3.947-4.736-9.272-7.65-15.135-7.65-7.025,0-13.283,4.184-17.323,10.692a12.917,12.917,0,0,1-11.482,6.172h-.373c-7.757,0-14.044,8.8-14.044,19.641s6.286,19.641,14.044,19.641a10.556,10.556,0,0,0,4.887-1.22,20.271,20.271,0,0,1,17-.337,17.732,17.732,0,0,0,14.453,0,20.287,20.287,0,0,1,16.842.323,10.563,10.563,0,0,0,4.844,1.2c7.757,0,14.044-8.791,14.044-19.641A24.951,24.951,0,0,0,377.859,129.772Z" transform="translate(-130.289 -105.28)" fill="#f2f2f2"/>
      <path id="Path_32" data-name="Path 32" d="M356.869,168.588a20.739,20.739,0,0,0-12.034,1.313,17.718,17.718,0,0,1-14.446,0,20.273,20.273,0,0,0-17,.33,10.477,10.477,0,0,1-4.887,1.227c-6.9,0-12.623-6.939-13.821-16.1a13.226,13.226,0,0,0,3.445-3.717c4.04-6.509,10.3-10.685,17.323-10.685s13.211,4.126,17.223,10.57a13.29,13.29,0,0,0,11.446,6.286h.179C349.807,157.781,354.558,162.18,356.869,168.588Z" transform="translate(-130.289 -115.355)" opacity="0.03"/>
      <path id="Path_33" data-name="Path 33" d="M924.242,306.2l-5.554,3.523,3.373-6.128a5.483,5.483,0,0,0-3.366-1.2h-.086a6.9,6.9,0,0,1-1.155-.086l-1.88,1.191.8-1.435a6.745,6.745,0,0,1-3.294-2.5l-3.366,2.153,2.153-3.868A9.867,9.867,0,0,0,904.293,294c-3.5,0-6.624,2.088-8.611,5.332a6.458,6.458,0,0,1-5.741,3.079h-.187c-3.868,0-7,4.385-7,9.8s3.136,9.781,7,9.781a5.253,5.253,0,0,0,2.44-.61,10.118,10.118,0,0,1,8.482-.165,8.834,8.834,0,0,0,7.176,0,10.1,10.1,0,0,1,8.4.165,5.232,5.232,0,0,0,2.411.6c3.868,0,7-4.385,7-9.8A12.5,12.5,0,0,0,924.242,306.2Z" transform="translate(-305.35 -158.572)" fill="#f2f2f2"/>
      <path id="Path_34" data-name="Path 34" d="M913.8,325.57a10.363,10.363,0,0,0-6.006.653,8.812,8.812,0,0,1-3.588.761,8.907,8.907,0,0,1-3.588-.775,10.047,10.047,0,0,0-8.475.165,5.274,5.274,0,0,1-2.44.61c-3.437,0-6.3-3.466-6.9-8.03a6.638,6.638,0,0,0,1.722-1.851c2.009-3.251,5.131-5.332,8.611-5.332s6.588,2.06,8.611,5.274a6.63,6.63,0,0,0,5.741,3.136h.093C910.266,320.18,912.634,322.369,913.8,325.57Z" transform="translate(-305.367 -163.59)" opacity="0.03"/>
      <path id="Path_35" data-name="Path 35" d="M780.8,189.254l8.927,5.662-5.418-9.853a8.819,8.819,0,0,1,5.4-1.93h.144a10.622,10.622,0,0,0,1.851-.144l3.021,1.923-1.292-2.361a10.764,10.764,0,0,0,5.289-4.062l5.411,3.43-3.416-6.215a15.827,15.827,0,0,1,12.128-6.136c5.626,0,10.642,3.351,13.879,8.568a10.377,10.377,0,0,0,9.171,4.944h.309c6.215,0,11.245,7.047,11.245,15.737s-5.023,15.737-11.245,15.737a8.475,8.475,0,0,1-3.925-.976,16.225,16.225,0,0,0-13.635-.273,14.2,14.2,0,0,1-11.582,0,16.232,16.232,0,0,0-13.5.266,8.453,8.453,0,0,1-3.875.954c-6.215,0-11.252-7.047-11.252-15.737a19.978,19.978,0,0,1,2.368-9.537Z" transform="translate(-266.892 -123.434)" fill="#f2f2f2"/>
      <path id="Path_36" data-name="Path 36" d="M805.17,220.28a16.584,16.584,0,0,1,9.638,1.048,14.2,14.2,0,0,0,11.582,0,16.254,16.254,0,0,1,13.635.266,8.439,8.439,0,0,0,3.925.983c5.518,0,10.111-5.562,11.066-12.917a10.722,10.722,0,0,1-2.756-2.978c-3.236-5.217-8.253-8.561-13.886-8.561s-10.578,3.308-13.814,8.468a10.657,10.657,0,0,1-9.171,5.023h-.144C810.825,211.669,807.021,215.171,805.17,220.28Z" transform="translate(-274.443 -131.497)" opacity="0.03"/>
      <path id="Path_37" data-name="Path 37" d="M296.692,711.679c-2.964-5.483.395-12.2,4.255-17.086s8.575-9.982,8.475-16.211c-.144-8.956-9.652-14.245-17.223-18.988a83.958,83.958,0,0,1-15.472-12.422,22.6,22.6,0,0,1-4.758-6.365c-1.572-3.5-1.529-7.485-1.435-11.324q.5-19.16,1.895-38.292" transform="translate(-123.46 -242.437)" fill="none" stroke="#5f55cf" stroke-miterlimit="10" stroke-width="4"/>
      <path id="Path_38" data-name="Path 38" d="M253.074,584.755a13.929,13.929,0,0,1,6.975-11.482l3.122,6.179L263.063,572a13.779,13.779,0,0,1,4.6-.552,13.965,13.965,0,1,1-14.589,13.312Z" transform="translate(-118.536 -236.912)" fill="#57b894"/>
      <path id="Path_39" data-name="Path 39" d="M287.18,713.681a13.965,13.965,0,1,0-.675-11.245l8.719,7.1-9.595-2.225a13.757,13.757,0,0,0,1.55,6.372Z" transform="translate(-127.733 -271.335)" fill="#57b894"/>
      <path id="Path_40" data-name="Path 40" d="M292.157,672.916a13.965,13.965,0,0,0,4.428-27.4l.072,5.741-3.165-6.265h-.036a13.971,13.971,0,1,0-1.3,27.911Z" transform="translate(-125.814 -257.682)" fill="#57b894"/>
      <path id="Path_41" data-name="Path 41" d="M244.92,641.485a13.965,13.965,0,1,0-6.179-26.136l2.469,6.767-5.074-4.88a13.907,13.907,0,0,0-4.514,9.645,13.635,13.635,0,0,0,.352,3.846A13.958,13.958,0,0,0,244.92,641.485Z" transform="translate(-112.477 -248.813)" fill="#57b894"/>
      <path id="Path_42" data-name="Path 42" d="M255.079,591.466c3.222.359,6.358,1.356,9.595,1.557s6.781-.574,8.827-3.086c1.105-1.356,1.658-3.071,2.591-4.543a9.917,9.917,0,0,1,3.516-3.315,13.965,13.965,0,1,1-26.107,9.272A14.218,14.218,0,0,1,255.079,591.466Z" transform="translate(-118.66 -239.921)" opacity="0.1"/>
      <path id="Path_43" data-name="Path 43" d="M245.054,644.631a13.972,13.972,0,0,0,13.283-19.921,10.291,10.291,0,0,0-2.813,2.813c-.99,1.5-1.593,3.236-2.763,4.614-2.153,2.555-5.892,3.394-9.264,3.237s-6.624-1.105-9.982-1.435c-.459-.043-.933-.072-1.435-.086A13.958,13.958,0,0,0,245.054,644.631Z" transform="translate(-112.611 -251.959)" opacity="0.1"/>
      <path id="Path_44" data-name="Path 44" d="M292.4,676.173a13.965,13.965,0,0,0,13.4-19.663,11.247,11.247,0,0,0-2.957,2.87c-1.084,1.536-1.758,3.294-3.028,4.708-2.361,2.626-6.315,3.588-9.889,3.466-3.459-.072-6.789-.926-10.226-1.184A13.979,13.979,0,0,0,292.4,676.173Z" transform="translate(-126.058 -260.939)" opacity="0.1"/>
      <path id="Path_45" data-name="Path 45" d="M287.79,717.206a13.965,13.965,0,0,0,25.454-11.4,14.044,14.044,0,0,0-3.064,2.734c-1.328,1.622-2.2,3.452-3.739,4.959-2.87,2.806-7.463,3.961-11.568,4.069A60.963,60.963,0,0,1,287.79,717.206Z" transform="translate(-128.343 -274.86)" opacity="0.1"/>
      <path id="Path_46" data-name="Path 46" d="M875.878,716.548c-2.153-4.047.294-9.013,3.15-12.623s6.329-7.37,6.25-11.97c-.1-6.616-7.126-10.52-12.731-14.029a61.919,61.919,0,0,1-11.439-9.2,16.9,16.9,0,0,1-3.516-4.708c-1.155-2.583-1.127-5.526-1.055-8.36q.366-14.151,1.435-28.288" transform="translate(-288.94 -252.71)" fill="none" stroke="#5f55cf" stroke-miterlimit="10" stroke-width="4"/>
      <path id="Path_47" data-name="Path 47" d="M843.64,622.79a10.334,10.334,0,0,1,5.152-8.454l2.311,4.571-.072-5.533a10.471,10.471,0,0,1,3.4-.409,10.319,10.319,0,1,1-10.764,9.824Z" transform="translate(-285.306 -248.64)" fill="#57b894"/>
      <path id="Path_48" data-name="Path 48" d="M868.837,718.084a10.312,10.312,0,1,0-.5-8.3l6.459,5.246-7.083-1.643A10.2,10.2,0,0,0,868.837,718.084Z" transform="translate(-292.103 -274.081)" fill="#57b894"/>
      <path id="Path_49" data-name="Path 49" d="M872.507,687.877a10.319,10.319,0,0,0,10.764-9.824,10.183,10.183,0,0,0-.89-4.693,10.341,10.341,0,0,0-6.624-5.741l.05,4.255-2.332-4.629h0a10.327,10.327,0,0,0-.969,20.632Z" transform="translate(-290.678 -263.967)" fill="#57b894"/>
      <path id="Path_50" data-name="Path 50" d="M837.611,664.7a10.319,10.319,0,1,0-4.557-19.3l1.823,5.023-3.753-3.588a10.247,10.247,0,0,0-3.33,7.119,10.052,10.052,0,0,0,.258,2.87A10.312,10.312,0,0,0,837.611,664.7Z" transform="translate(-280.827 -257.428)" fill="#57b894"/>
      <path id="Path_51" data-name="Path 51" d="M845.134,627.762c2.375.266,4.693,1,7.083,1.155s5.023-.431,6.523-2.282a30.9,30.9,0,0,0,1.909-3.358,7.377,7.377,0,0,1,2.6-2.447A10.3,10.3,0,1,1,844,627.676C844.352,627.69,844.718,627.719,845.134,627.762Z" transform="translate(-285.408 -250.863)" opacity="0.1"/>
      <path id="Path_52" data-name="Path 52" d="M837.719,667.031a10.326,10.326,0,0,0,9.817-14.711,7.737,7.737,0,0,0-2.081,2.074,30.765,30.765,0,0,1-2.038,3.409c-1.607,1.887-4.356,2.512-6.846,2.4s-4.887-.825-7.37-1.048c-.344-.036-.718-.057-1.041-.065A10.312,10.312,0,0,0,837.719,667.031Z" transform="translate(-280.935 -259.755)" opacity="0.1"/>
      <path id="Path_53" data-name="Path 53" d="M872.692,690.287a10.319,10.319,0,0,0,10.764-9.824,10.183,10.183,0,0,0-.89-4.693,8.309,8.309,0,0,0-2.153,2.1,35.317,35.317,0,0,1-2.239,3.473c-1.744,1.938-4.664,2.626-7.305,2.562s-5.023-.682-7.549-.875a10.305,10.305,0,0,0,9.372,7.262Z" transform="translate(-290.864 -266.377)" opacity="0.1"/>
      <path id="Path_54" data-name="Path 54" d="M869.28,720.69a10.319,10.319,0,0,0,18.809-8.41,10.239,10.239,0,0,0-2.268,2.016,41.894,41.894,0,0,1-2.763,3.667c-2.11,2.067-5.511,2.921-8.54,3a43.68,43.68,0,0,1-5.239-.273Z" transform="translate(-292.547 -276.687)" opacity="0.1"/>
      <path id="Path_55" data-name="Path 55" d="M1000.159,718.681c2.964-5.483-.395-12.2-4.255-17.086s-8.611-9.982-8.475-16.211c.144-8.956,9.652-14.245,17.223-18.988a83.956,83.956,0,0,0,15.479-12.422,22.6,22.6,0,0,0,4.758-6.365c1.571-3.5,1.528-7.485,1.435-11.324q-.452-19.189-1.887-38.285" transform="translate(-325.909 -244.416)" fill="none" stroke="#5f55cf" stroke-miterlimit="10" stroke-width="4"/>
      <path id="Path_56" data-name="Path 56" d="M1048.145,591.747a13.951,13.951,0,0,0-6.975-11.482l-3.129,6.186.1-7.485a13.8,13.8,0,0,0-4.6-.553,13.965,13.965,0,1,0,14.6,13.333Z" transform="translate(-335.172 -238.881)" fill="#57b894"/>
      <path id="Path_57" data-name="Path 57" d="M1014.038,720.681a13.965,13.965,0,1,1,.674-11.245l-8.719,7.1,9.595-2.224A13.756,13.756,0,0,1,1014.038,720.681Z" transform="translate(-325.974 -273.312)" fill="#57b894"/>
      <path id="Path_58" data-name="Path 58" d="M1009.05,679.916a13.965,13.965,0,0,1-4.428-27.4l-.072,5.741,3.2-6.265h0a13.971,13.971,0,1,1,1.3,27.911Z" transform="translate(-327.882 -259.659)" fill="#57b894"/>
      <path id="Path_59" data-name="Path 59" d="M1056.3,648.485a13.965,13.965,0,1,1,6.178-26.136l-2.468,6.767,5.073-4.88a13.965,13.965,0,0,1-8.784,24.248Z" transform="translate(-341.233 -250.79)" fill="#57b894"/>
      <path id="Path_60" data-name="Path 60" d="M1046.266,598.466c-3.222.359-6.358,1.356-9.595,1.557s-6.781-.574-8.827-3.086c-1.105-1.356-1.658-3.071-2.591-4.543a9.917,9.917,0,0,0-3.516-3.315,13.965,13.965,0,1,0,26.107,9.272A14.858,14.858,0,0,0,1046.266,598.466Z" transform="translate(-335.174 -241.898)" opacity="0.1"/>
      <path id="Path_61" data-name="Path 61" d="M1056.3,651.631a13.972,13.972,0,0,1-13.283-19.921,10.292,10.292,0,0,1,2.813,2.813c.99,1.5,1.593,3.237,2.763,4.614,2.153,2.555,5.892,3.394,9.265,3.236s6.624-1.105,9.982-1.435c.459-.043.933-.072,1.435-.086A13.958,13.958,0,0,1,1056.3,651.631Z" transform="translate(-341.229 -253.936)" opacity="0.1"/>
      <path id="Path_62" data-name="Path 62" d="M1009.057,683.173a13.965,13.965,0,0,1-13.4-19.663,11.246,11.246,0,0,1,2.957,2.871c1.084,1.536,1.758,3.294,3.028,4.708,2.361,2.626,6.315,3.588,9.889,3.466,3.459-.072,6.789-.926,10.226-1.184A13.979,13.979,0,0,1,1009.057,683.173Z" transform="translate(-327.889 -262.915)" opacity="0.1"/>
      <path id="Path_63" data-name="Path 63" d="M1014.086,724.206a13.965,13.965,0,0,1-25.418-11.4,14.046,14.046,0,0,1,3.064,2.734c1.328,1.622,2.2,3.452,3.739,4.959,2.87,2.806,7.463,3.961,11.568,4.069A60.984,60.984,0,0,0,1014.086,724.206Z" transform="translate(-326.022 -276.837)" opacity="0.1"/>
      <path id="Path_64" data-name="Path 64" d="M276.83,751.033s11.015-.344,14.352-2.705,16.957-5.188,17.783-1.435,16.563,18.866,4.119,18.967-28.913-1.938-32.228-3.954S276.83,751.033,276.83,751.033Z" transform="translate(-125.248 -285.946)" fill="#656380"/>
      <path id="Path_65" data-name="Path 65" d="M313.292,766.916c-12.443.1-28.913-1.938-32.228-3.954-2.526-1.536-3.531-7.054-3.868-9.6h-.366s.718,8.884,4.011,10.908,19.785,4.055,32.228,3.954c3.588,0,4.83-1.306,4.765-3.193C317.332,766.184,315.969,766.894,313.292,766.916Z" transform="translate(-125.248 -288.288)" opacity="0.2"/>
      <path id="Path_66" data-name="Path 66" d="M865,750.112s6.458-.194,8.375-1.579,9.9-3.028,10.377-.811,9.666,11.008,2.4,11.066-16.878-1.127-18.816-2.311S865,750.112,865,750.112Z" transform="translate(-291.338 -286.389)" fill="#656380"/>
      <path id="Path_67" data-name="Path 67" d="M886.256,759.385c-7.262.057-16.878-1.134-18.816-2.311-1.435-.9-2.06-4.119-2.253-5.6H865s.409,5.188,2.339,6.365,11.554,2.375,18.816,2.311c2.1,0,2.82-.761,2.777-1.866C888.617,758.955,887.813,759.371,886.256,759.385Z" transform="translate(-291.338 -287.754)" opacity="0.2"/>
      <path id="Path_68" data-name="Path 68" d="M975.83,755.033s11.015-.344,14.352-2.705,16.957-5.188,17.783-1.435,16.563,18.866,4.119,18.967-28.913-1.938-32.228-3.954S975.83,755.033,975.83,755.033Z" transform="translate(-322.635 -287.075)" fill="#656380"/>
      <path id="Path_69" data-name="Path 69" d="M1012.292,770.916c-12.443.1-28.913-1.938-32.228-3.954-2.526-1.536-3.531-7.054-3.868-9.6h-.366s.718,8.884,4.011,10.908,19.785,4.055,32.228,3.954c3.588,0,4.83-1.306,4.765-3.193C1016.332,770.184,1014.969,770.894,1012.292,770.916Z" transform="translate(-322.635 -289.417)" opacity="0.2"/>
    </g>
  </g>
</svg>
