<svg xmlns="http://www.w3.org/2000/svg" xmlns:xlink="http://www.w3.org/1999/xlink" width="435" height="385" viewBox="0 0 435 385">
  <defs>
    <clipPath id="clip-path">
      <rect id="Rectangle_37" data-name="Rectangle 37" width="435" height="385" transform="translate(0.457 -0.123)" fill="#fff" stroke="#707070" stroke-width="1"/>
    </clipPath>
  </defs>
  <g id="Mask_Group_1" data-name="Mask Group 1" transform="translate(-0.457 0.123)" clip-path="url(#clip-path)">
    <g id="Group_2" data-name="Group 2" transform="translate(-92.185 -15.06)">
      <path id="Path_33" data-name="Path 33" d="M966.371,626.983,906.188,522.712a1.915,1.915,0,0,0-3.326,0l-60.2,104.271a1.915,1.915,0,0,0,1.666,2.9h17.958a1.927,1.927,0,0,1,1.921,1.921v22.276A1.915,1.915,0,0,0,866.116,656h23.431a1.921,1.921,0,0,0,1.921-1.921V643.3a1.915,1.915,0,0,1,1.915-1.915h22.276a1.921,1.921,0,0,1,1.921,1.915V654.06a1.921,1.921,0,0,0,1.921,1.921h23.425a1.938,1.938,0,0,0,1.927-1.921V631.783a1.921,1.921,0,0,1,1.921-1.921h17.958a1.921,1.921,0,0,0,1.637-2.879Zm-83.91,11.539a1.939,1.939,0,0,1-1.364.58h-8.451a1.921,1.921,0,1,1,0-3.842H881.1a1.915,1.915,0,0,1,1.921,1.921,1.938,1.938,0,0,1-.557,1.341Zm55.3,0a1.909,1.909,0,0,1-1.358.58h-8.445a1.921,1.921,0,1,1,0-3.842H936.4a1.915,1.915,0,0,1,1.358,3.279Z" transform="translate(-391.531 -280.025)" fill="#f2f2f2"/>
      <path id="Path_34" data-name="Path 34" d="M331.425,628.572,271.231,524.307a1.927,1.927,0,0,0-3.332,0l-52,90.057a159.161,159.161,0,0,0,21.783,22.468h8.457a1.921,1.921,0,0,1,1.358,3.279,1.886,1.886,0,0,1-1.358.58h-3.575a93.027,93.027,0,0,0,13.93,8.666v-4.44A1.927,1.927,0,0,1,258.421,643h22.27a1.921,1.921,0,0,1,1.921,1.921v10.749a1.789,1.789,0,0,0,.18.807,1.9,1.9,0,0,0,1.741,1.114h23.431a1.9,1.9,0,0,0,1.526-.772,1.84,1.84,0,0,0,.383-1.161V633.378a1.921,1.921,0,0,1,1.921-1.921h17.958a1.915,1.915,0,0,0,1.672-2.885Zm-39.793,8.822a1.932,1.932,0,0,1,1.364-.58h8.451a1.921,1.921,0,0,1,0,3.842H293a1.915,1.915,0,0,1-1.921-1.921,1.938,1.938,0,0,1,.557-1.341Zm-37.808-38.586a1.915,1.915,0,0,1-1.921-1.921V582.3a1.915,1.915,0,0,1,1.921-1.921h31.487a1.921,1.921,0,0,1,1.921,1.921v14.592a1.921,1.921,0,0,1-1.921,1.921Z" transform="translate(-128.664 -280.697)" fill="#f2f2f2"/>
      <path id="Path_35" data-name="Path 35" d="M655.3,353.346H580.8V337.234a3.848,3.848,0,0,0-3.854-3.854H555.072V316.246a2.426,2.426,0,0,0-2.426-2.426H524.467a2.426,2.426,0,0,0-2.426,2.426v17.163h-25.73a3.854,3.854,0,0,0-3.854,3.854v16.072H421.438a.784.784,0,0,0-.778.784V568.023a.784.784,0,0,0,.778.784h47.211a.784.784,0,0,0,.784-.784V539.246a.8.8,0,0,1,.789-.784h19.937a.789.789,0,0,1,.784.784v28.777a.79.79,0,0,0,.778.784h93.3a.79.79,0,0,0,.784-.784V539.246a.789.789,0,0,1,.778-.784h19.943a.789.789,0,0,1,.789.784v28.777a.789.789,0,0,0,.778.784H655.3a.784.784,0,0,0,.778-.784V354.13A.783.783,0,0,0,655.3,353.346ZM460.975,528.468a.778.778,0,0,1-.772.778h-29.16a.784.784,0,0,1-.789-.778v-9.96a.789.789,0,0,1,.789-.784H460.2a.784.784,0,0,1,.772.784Zm0-25.736a.778.778,0,0,1-.772.784h-29.16a.784.784,0,0,1-.789-.784v-9.954a.784.784,0,0,1,.789-.784H460.2a.778.778,0,0,1,.772.784Zm0-25.73a.784.784,0,0,1-.772.784h-29.16a.789.789,0,0,1-.789-.784v-9.96a.789.789,0,0,1,.789-.784H460.2a.784.784,0,0,1,.772.784Zm0-25.736a.778.778,0,0,1-.772.784h-29.16a.784.784,0,0,1-.789-.784v-9.954a.784.784,0,0,1,.789-.784H460.2a.778.778,0,0,1,.772.784Zm0-25.73a.784.784,0,0,1-.772.784h-29.16a.789.789,0,0,1-.789-.784v-9.96a.784.784,0,0,1,.789-.778H460.2a.778.778,0,0,1,.772.778Zm0-25.73a.778.778,0,0,1-.772.778h-29.16a.784.784,0,0,1-.789-.778v-9.96a.789.789,0,0,1,.789-.784H460.2a.784.784,0,0,1,.772.784Zm0-25.735a.778.778,0,0,1-.772.784h-29.16a.784.784,0,0,1-.789-.784v-9.954a.784.784,0,0,1,.789-.784H460.2a.778.778,0,0,1,.772.784Zm69.139,154.39a.784.784,0,0,1-.789.778h-29.16a.778.778,0,0,1-.778-.778v-9.954a.784.784,0,0,1,.778-.784h29.16a.789.789,0,0,1,.789.784Zm0-25.736a.784.784,0,0,1-.789.784h-29.16a.778.778,0,0,1-.778-.784v-9.948a.778.778,0,0,1,.778-.784h29.16a.783.783,0,0,1,.789.784Zm0-25.73a.789.789,0,0,1-.789.784h-29.16a.784.784,0,0,1-.778-.76v-9.977a.784.784,0,0,1,.778-.784h29.16a.789.789,0,0,1,.789.784Zm0-25.736a.784.784,0,0,1-.789.784h-29.16a.778.778,0,0,1-.778-.784v-9.948a.778.778,0,0,1,.778-.784h29.16a.783.783,0,0,1,.789.784Zm0-25.73a.789.789,0,0,1-.789.784h-29.16a.784.784,0,0,1-.778-.784v-9.954a.778.778,0,0,1,.778-.778h29.16a.784.784,0,0,1,.789.778Zm0-25.73a.784.784,0,0,1-.789.778h-29.16a.778.778,0,0,1-.778-.754v-9.977a.784.784,0,0,1,.778-.784h29.16a.789.789,0,0,1,.789.784Zm0-25.735a.784.784,0,0,1-.789.784h-29.16a.778.778,0,0,1-.778-.784v-9.948a.778.778,0,0,1,.778-.784h29.16a.783.783,0,0,1,.789.784Zm47.234,154.39a.778.778,0,0,1-.784.778H547.387a.789.789,0,0,1-.789-.778v-9.948a.8.8,0,0,1,.789-.784h29.154a.784.784,0,0,1,.784.784Zm0-25.736a.778.778,0,0,1-.784.784H547.387a.789.789,0,0,1-.789-.784v-9.942a.789.789,0,0,1,.789-.784h29.154a.778.778,0,0,1,.784.784Zm0-25.73a.784.784,0,0,1-.784.784H547.387a.8.8,0,0,1-.789-.784v-9.948a.8.8,0,0,1,.789-.784h29.154a.784.784,0,0,1,.784.784Zm0-25.736a.778.778,0,0,1-.784.784H547.387a.789.789,0,0,1-.789-.784v-9.942a.789.789,0,0,1,.789-.784h29.154a.778.778,0,0,1,.784.784Zm0-25.73a.784.784,0,0,1-.784.784H547.387a.8.8,0,0,1-.789-.784v-9.948a.789.789,0,0,1,.789-.778h29.154a.778.778,0,0,1,.784.778Zm0-25.73a.778.778,0,0,1-.784.778H547.387a.789.789,0,0,1-.789-.778v-9.948a.8.8,0,0,1,.789-.784h29.154a.784.784,0,0,1,.784.784Zm0-25.735a.778.778,0,0,1-.784.784H547.387a.789.789,0,0,1-.789-.784v-9.942a.789.789,0,0,1,.789-.784h29.154a.778.778,0,0,1,.784.784Zm69.139,154.39a.789.789,0,0,1-.789.778h-29.16a.772.772,0,0,1-.778-.778v-9.942a.778.778,0,0,1,.778-.784H645.7a.8.8,0,0,1,.789.784Zm0-25.736a.789.789,0,0,1-.789.784h-29.16a.778.778,0,0,1-.778-.784v-9.936a.778.778,0,0,1,.778-.784H645.7a.789.789,0,0,1,.789.784Zm0-25.73a.8.8,0,0,1-.789.784h-29.16a.778.778,0,0,1-.778-.748v-9.977a.778.778,0,0,1,.778-.784H645.7a.8.8,0,0,1,.789.784Zm0-25.736a.789.789,0,0,1-.789.784h-29.16a.778.778,0,0,1-.778-.784v-9.936a.778.778,0,0,1,.778-.784H645.7a.789.789,0,0,1,.789.784Zm0-25.73a.8.8,0,0,1-.789.784h-29.16a.778.778,0,0,1-.778-.784v-9.942a.772.772,0,0,1,.778-.778H645.7a.789.789,0,0,1,.789.778Zm0-25.73a.789.789,0,0,1-.789.778h-29.16a.772.772,0,0,1-.778-.743v-9.977a.778.778,0,0,1,.778-.784H645.7a.8.8,0,0,1,.789.784Zm0-25.735a.789.789,0,0,1-.789.784h-29.16a.778.778,0,0,1-.778-.784v-9.936a.778.778,0,0,1,.778-.784H645.7a.789.789,0,0,1,.789.784Z" transform="translate(-214.579 -192.781)" fill="#f2f2f2"/>
      <path id="Path_36" data-name="Path 36" d="M197.661,335.458a43.2,43.2,0,0,0,3.349-4.922L177.4,326.659l25.538.192a43.049,43.049,0,0,0,.83-34.088l-34.244,17.761,31.58-23.216a43.026,43.026,0,1,0-71.06,48.174,42.888,42.888,0,0,0-4.9,7.847l30.611,15.892L123.1,348.256a43.061,43.061,0,0,0,6.965,40.4,42.736,42.736,0,0,0-7.714,15.352A428.618,428.618,0,0,0,142.6,452.667a42.6,42.6,0,0,0,13.349,4.881,14.923,14.923,0,0,0-.847,5,14.191,14.191,0,0,0,1.811,7.186,13.93,13.93,0,0,0-1.834,6.129h0a264.627,264.627,0,0,0,17.47,26.119,13.2,13.2,0,0,0-1.416-3.482,14.748,14.748,0,0,0,0-14.371,14.748,14.748,0,0,0,0-14.371,14.191,14.191,0,0,0,1.869-7.185,14.737,14.737,0,0,0-.871-5.067,43.026,43.026,0,0,0,25.538-68.82,43.014,43.014,0,0,0,0-53.2Z" transform="translate(-88.776 -172.687)" fill="#f2f2f2"/>
      <path id="Path_37" data-name="Path 37" d="M1092.109,403.076l-1.741-.284h1.706a73.68,73.68,0,0,0-3.529-19.334l-6.071,3.152,5.711-4.214a74.082,74.082,0,0,0-28.3-37.106,43.183,43.183,0,0,0-16.9,66.312,43.021,43.021,0,0,0-4.9,7.865l30.646,15.961-32.66-10.987a43.229,43.229,0,0,0,6.965,40.49,43.188,43.188,0,0,0,19.1,67.194c2.322-5.508,4.579-11.266,6.692-17.186,1.869-5.224,3.651-10.546,5.328-15.921a489.239,489.239,0,0,0,12.282-47.919c3.715-18.411,5.8-34.5,5.8-44.692C1092.185,405.287,1092.156,404.184,1092.109,403.076Z" transform="translate(-471.84 -205.985)" fill="#f2f2f2"/>
      <ellipse id="Ellipse_11" data-name="Ellipse 11" cx="308.779" cy="14.51" rx="308.779" ry="14.51" transform="translate(0 371.133)" fill="#3f3d56"/>
      <path id="Path_38" data-name="Path 38" d="M634.885,452.409c-5.769-9.995-29.6-7.052-53.172,6.57a113.273,113.273,0,0,0-11.829,7.841A102.53,102.53,0,0,0,365.3,469.4a109.979,109.979,0,0,0-15.091-10.447c-23.524-13.593-47.362-16.536-53.125-6.541s8.706,29.137,32.277,42.759c15.271,8.816,30.623,13.152,41.122,12.415a102.644,102.644,0,0,0,31.238,45.853c-20.674,2.9-35.875,12.572-35.875,24.076,0,13.779,21.829,24.958,48.755,24.958s48.755-11.179,48.755-24.958v-.11q2.171.093,4.359.1t4.359-.1v.11c0,13.779,21.829,24.958,48.755,24.958s48.755-11.179,48.755-24.958c0-11.5-15.2-21.179-35.875-24.076a102.628,102.628,0,0,0,31.214-45.765c10.268-.267,24.029-4.568,37.727-12.479C626.225,481.546,640.689,462.4,634.885,452.409Z" transform="translate(-162.197 -217.377)" fill="#ffc107"/>
      <path id="Path_39" data-name="Path 39" d="M297.086,511.158c5.769-9.995,29.6-7.052,53.172,6.57a109.84,109.84,0,0,1,14.864,10.239c.226-4.91.226.313.215-5.05A110.02,110.02,0,0,0,350.246,512.5c-23.559-13.622-47.4-16.565-53.16-6.57a10.992,10.992,0,0,0-.981,7.778A9.289,9.289,0,0,1,297.086,511.158Z" transform="translate(-162.198 -270.902)" opacity="0.1"/>
      <path id="Path_40" data-name="Path 40" d="M832.974,511.158c-5.769-9.995-29.6-7.052-53.177,6.57-5.5,3.169-7.592,4.33-11.956,7.917-.232-4.91-.232.313-.215-5.05,4.411-3.651,6.588-4.864,12.189-8.091,23.6-13.622,47.408-16.565,53.177-6.57a10.992,10.992,0,0,1,.981,7.778,9.287,9.287,0,0,0-1-2.554Z" transform="translate(-360.159 -270.902)" opacity="0.1"/>
      <ellipse id="Ellipse_12" data-name="Ellipse 12" cx="10.633" cy="13.924" rx="10.633" ry="13.924" transform="translate(267.402 223.778)" fill="#444053"/>
      <ellipse id="Ellipse_13" data-name="Ellipse 13" cx="10.633" cy="13.924" rx="10.633" ry="13.924" transform="translate(322.338 223.778)" fill="#444053"/>
      <path id="Path_41" data-name="Path 41" d="M609.719,582.983c0,19.989-33.391,53.665-67.084,53.665S476.81,602.212,476.81,582.24s31.452-1.741,65.116-1.741S609.719,562.987,609.719,582.983Z" transform="translate(-238.139 -301.483)" fill="#3f3d56"/>
      <path id="Path_42" data-name="Path 42" d="M492.759,596.16s60.566,13.483,111.439.383c0,0,6.228,0,1.973,7.2a11.5,11.5,0,0,1-4.643,4.365c-9.809,5.009-46.114,19.821-104.167.934a11.422,11.422,0,0,1-7.569-7.749C489.132,598.847,489.428,596.5,492.759,596.16Z" transform="translate(-243.467 -311.247)" fill="#f6f8fb"/>
      <path id="Path_43" data-name="Path 43" d="M517.263,385.84A102.523,102.523,0,0,1,619.6,482.281q.291-3.822.291-7.731a102.528,102.528,0,1,0-205.057,0c0,2.049.073,4.063.189,6.1a102.536,102.536,0,0,1,102.24-94.81Z" transform="translate(-212.135 -217.201)" opacity="0.1"/>
      <path id="Path_44" data-name="Path 44" d="M592.241,157.892a13.141,13.141,0,1,1-26.281,0v-.633a13.141,13.141,0,0,1,26.246,0A4.609,4.609,0,0,1,592.241,157.892Z" transform="translate(-275.545 -121.86)" fill="#3f3d56"/>
      <path id="Path_45" data-name="Path 45" d="M592.241,163.52a13.141,13.141,0,1,1-26.281,0v-.633a20.744,20.744,0,0,1,26.246,0A4.609,4.609,0,0,1,592.241,163.52Z" transform="translate(-275.545 -127.488)" opacity="0.1"/>
      <circle id="Ellipse_14" data-name="Ellipse 14" cx="20.75" cy="20.75" r="20.75" transform="translate(282.806 31.882)" fill="#3f3d56"/>
      <path id="Path_46" data-name="Path 46" d="M564.481,152.86a13.146,13.146,0,0,1,11.4-13.024,13.141,13.141,0,1,0,0,26.049A13.146,13.146,0,0,1,564.481,152.86Z" transform="translate(-273.463 -119.73)" fill="#3f3d56"/>
      <path id="Path_47" data-name="Path 47" d="M543.4,198.059a13.141,13.141,0,0,1-2.211-17.169,13.141,13.141,0,1,0,18.451,18.637,12.612,12.612,0,0,0,1.068-1.387A13.135,13.135,0,0,1,543.4,198.059Z" transform="translate(-263.256 -137.005)" fill="#3f3d56"/>
      <path id="Path_48" data-name="Path 48" d="M566.624,235.558a11.361,11.361,0,0,0-3.07,1.051c-1.741,1.2-1.666,3.75-1.161,5.8,1.161,4.643,4.063,9.118,8.457,11.028a20.538,20.538,0,0,0,8.52,1.236c3.152-.035,6.7-.435,8.648-2.9a11.392,11.392,0,0,0,1.77-4.33c.964-3.773,1.933-7.632,1.584-11.51-1.91.168-4.063.279-5.526-.923s-1.846-3.482-2.5-5.392a1.358,1.358,0,0,0-.488-.766,1.486,1.486,0,0,0-.871-.133,34.383,34.383,0,0,1-5.972-.3c-1.236-.162-4.278-1.451-5.224-.366-.679.8-.25,3.192-.766,4.3a6.013,6.013,0,0,1-3.407,3.2Z" transform="translate(-273.917 -156.616)" fill="#ffc1c7"/>
      <path id="Path_49" data-name="Path 49" d="M566.624,235.558a11.361,11.361,0,0,0-3.07,1.051c-1.741,1.2-1.666,3.75-1.161,5.8,1.161,4.643,4.063,9.118,8.457,11.028a20.538,20.538,0,0,0,8.52,1.236c3.152-.035,6.7-.435,8.648-2.9a11.392,11.392,0,0,0,1.77-4.33c.964-3.773,1.933-7.632,1.584-11.51-1.91.168-4.063.279-5.526-.923s-1.846-3.482-2.5-5.392a1.358,1.358,0,0,0-.488-.766,1.486,1.486,0,0,0-.871-.133,34.383,34.383,0,0,1-5.972-.3c-1.236-.162-4.278-1.451-5.224-.366-.679.8-.25,3.192-.766,4.3a6.013,6.013,0,0,1-3.407,3.2Z" transform="translate(-273.917 -156.616)" opacity="0.05"/>
      <path id="Path_50" data-name="Path 50" d="M371.2,473.051c-4.643.139-9.385-.058-13.93.964a3.57,3.57,0,0,0-2.252,1.161c-.667.952-.313,2.281.238,3.308a10.279,10.279,0,0,0,5.874,4.881c2.763.882,5.74.546,8.631.638a28.869,28.869,0,0,1,11.388,2.739,4.6,4.6,0,0,0,2.56.679c1.283-.2,2.084-1.48,2.56-2.687a32.781,32.781,0,0,0,1.283-4.452c.673-2.861.766-8.515-3.163-9.287-1.8-.348-3.918.894-5.647,1.254A42.031,42.031,0,0,1,371.2,473.051Z" transform="translate(-186.883 -258.704)" fill="#444053"/>
      <path id="Path_51" data-name="Path 51" d="M786.027,453.769a5.352,5.352,0,0,0,2.711-2.078c1.741-2.536,1.741-5.566,2.664-8.346,1.161-3.616,3.732-6.6,5.346-10.041a20.761,20.761,0,0,0,1.939-9.867,1.741,1.741,0,0,0-2.037-1.625,9.828,9.828,0,0,0-5.566,3.819c-1.793,2.322-2.966,5.084-4.806,7.377s-4.423,4.133-6.611,6.239c-2.745,2.647-4.9,5.525-2.449,8.962C779.207,451.029,781.958,455.1,786.027,453.769Z" transform="translate(-363.736 -238.082)" fill="#444053"/>
      <path id="Path_52" data-name="Path 52" d="M487.211,344.185a186.48,186.48,0,0,1-53.4,47.112c-6.321,3.709-12.914,7.075-18.533,11.782a97.916,97.916,0,0,0-11.469,12.1,2.9,2.9,0,0,0-.813,1.486,2.849,2.849,0,0,0,.215,1.2c1.161,3.424,2.507,7.139,5.607,9.008,8.033-11.608,23.994-14.609,36.235-21.632,5.688-3.262,10.871-7.313,16.118-11.237q11.376-8.515,23.257-16.315c5.253-3.448,10.662-6.837,16.687-8.631,12.769-3.819,26.7,0,38.493,6.268s22.178,14.835,33.734,21.5c15.706,9.054,33.229,14.394,50.577,19.659.621-4.167,1-8.253,1.88-12.374-4.33-.609-8.422-2.322-12.461-4a73.891,73.891,0,0,1-13.1-6.518c-2.676-1.811-5.108-3.97-7.754-5.8-5.769-4.063-12.456-6.617-18.3-10.558-7.615-5.131-13.506-12.392-20.471-18.376-3.036-2.606-6.263-4.968-9.5-7.325-3.343-2.444-6.739-4.91-10.593-6.425-4.574-1.805-9.565-2.177-14.47-2.525C508.187,341.765,497.606,340.685,487.211,344.185Z" transform="translate(-207.168 -204.503)" fill="#575a89"/>
      <circle id="Ellipse_15" data-name="Ellipse 15" cx="14.51" cy="14.51" r="14.51" transform="translate(288.755 48.134)" fill="#ffc1c7"/>
      <path id="Path_53" data-name="Path 53" d="M566.916,254.1a17.412,17.412,0,0,1-7.325-2.67,10.668,10.668,0,0,1-4.463-6.234c-.47-2.049-.209-4.26-1.033-6.187a55.384,55.384,0,0,1-8.126,3.3,13.112,13.112,0,0,0-4.492,1.985c-2.745,2.235-2.9,6.3-2.827,9.832a6.537,6.537,0,0,0,.261,2.072,5.227,5.227,0,0,0,1.132,1.706c2.983,3.192,7.621,4.516,10.448,7.865a11.2,11.2,0,0,0-2.734,5.9,20.81,20.81,0,0,1-.371,2.623,16.177,16.177,0,0,1-.853,2.084c-1.834,4.179-1.77,8.9-2.049,13.454s-1.068,9.4-4.144,12.769a6.864,6.864,0,0,0,4.707,1.91c1.805.168,3.674-.07,5.514,0,4.852.139,9.432,2.124,14.11,3.419s9.989,1.823,14.127-.714c1.451-.888,2.681-2.113,4.138-2.989a20.376,20.376,0,0,1,5.8-2.055l.726-24.238a41.177,41.177,0,0,1,.366-5.079c1.05-6.628,5.282-12.241,9.379-17.552a16.06,16.06,0,0,0-7.365-11.956,31.547,31.547,0,0,0-5.8-2.693l-4.771-1.834a2.658,2.658,0,0,0-1.358-.255c-1.033.186-1.428,1.445-1.486,2.49-.093,1.648.151,3.3.093,4.951a6.7,6.7,0,0,1-1.637,4.556,7.871,7.871,0,0,1-2.9,1.648C571.542,253.128,569.488,254.481,566.916,254.1Z" transform="translate(-264.081 -161.197)" fill="#ff6584"/>
      <path id="Path_54" data-name="Path 54" d="M547.309,356.447a42.606,42.606,0,0,1-.163,9.693,14.475,14.475,0,0,1-4.307,8.5c-1.875,1.654-4.51,2.9-4.974,5.38a2.9,2.9,0,0,0,.128,1.625,3.088,3.088,0,0,0,3.343,1.561,7.8,7.8,0,0,0,3.483-1.822,76.931,76.931,0,0,0,5.769-5.224c1.619-1.573,3.3-3.233,3.976-5.386a13.3,13.3,0,0,0,.47-3.146c.377-5.8.476-11.608.581-17.412.07-4.225.116-8.584-1.439-12.514.232.58-5.421,1.132-5.851,1.161-2.438.215-1.973,1.219-1.834,3.517Q546.9,349.436,547.309,356.447Z" transform="translate(-263.731 -202.801)" fill="#ffc1c7"/>
      <path id="Path_55" data-name="Path 55" d="M620.977,356.447a42.61,42.61,0,0,0,.162,9.693,14.475,14.475,0,0,0,4.307,8.5c1.875,1.654,4.51,2.9,4.974,5.38a2.9,2.9,0,0,1-.128,1.625,3.088,3.088,0,0,1-3.343,1.561,7.8,7.8,0,0,1-3.482-1.822,76.956,76.956,0,0,1-5.769-5.224c-1.619-1.573-3.3-3.233-3.976-5.386a13.292,13.292,0,0,1-.47-3.146c-.377-5.8-.476-11.608-.58-17.412-.07-4.225-.116-8.584,1.439-12.514-.232.58,5.421,1.132,5.851,1.161,2.438.215,1.974,1.219,1.834,3.517Q621.412,349.436,620.977,356.447Z" transform="translate(-295.133 -202.801)" fill="#ffc1c7"/>
      <path id="Path_56" data-name="Path 56" d="M540.777,261.7c-2.049,6.048-1.219,12.769.877,18.788a9.793,9.793,0,0,1,.871,4.574,14.375,14.375,0,0,1-.72,2.322,11,11,0,0,0-.313,5.636,3.529,3.529,0,0,0,.644,1.555,7.249,7.249,0,0,1,.58.673c.8,1.242-.766,2.78-.58,4.249.139,1.219,1.376,1.939,2.24,2.815,2.444,2.478,1.974,6.512,1.335,9.937,2.966-.261,5.525-2.687,8.5-2.49a5.085,5.085,0,0,1,4.376,3.372c-.11-2.873.911-5.322,1.161-8.19.331-3.732-2.084-7.075-3.25-10.627-1.7-5.177-.743-10.8-1.161-16.252a54.307,54.307,0,0,0-.882-6.03c-.528-2.728-1.3-5.711-3.61-7.261C547.864,262.791,543.383,264.2,540.777,261.7Z" transform="translate(-264.483 -170.912)" opacity="0.1"/>
      <path id="Path_57" data-name="Path 57" d="M539.777,259.7c-2.049,6.048-1.219,12.769.876,18.788a9.791,9.791,0,0,1,.871,4.574,14.4,14.4,0,0,1-.72,2.322,10.992,10.992,0,0,0-.313,5.636,3.528,3.528,0,0,0,.644,1.555,7.222,7.222,0,0,1,.58.673c.8,1.242-.766,2.78-.58,4.249.139,1.219,1.375,1.939,2.24,2.815,2.443,2.478,1.973,6.512,1.335,9.937,2.966-.261,5.526-2.687,8.5-2.49a5.085,5.085,0,0,1,4.376,3.372c-.11-2.873.911-5.322,1.161-8.19.331-3.732-2.084-7.075-3.25-10.627-1.7-5.177-.743-10.8-1.161-16.252a54.323,54.323,0,0,0-.882-6.031c-.528-2.728-1.3-5.711-3.61-7.261C546.864,260.791,542.383,262.2,539.777,259.7Z" transform="translate(-264.064 -170.073)" fill="#ff6584"/>
      <path id="Path_58" data-name="Path 58" d="M625.846,261.7c2.049,6.048,1.219,12.769-.876,18.788a9.791,9.791,0,0,0-.871,4.574,14.38,14.38,0,0,0,.72,2.322,10.993,10.993,0,0,1,.313,5.636,3.53,3.53,0,0,1-.644,1.556,7.235,7.235,0,0,0-.58.673c-.8,1.242.766,2.78.58,4.249-.139,1.219-1.376,1.939-2.24,2.815-2.443,2.478-1.973,6.512-1.335,9.937-2.966-.261-5.526-2.687-8.5-2.49a5.084,5.084,0,0,0-4.376,3.372c.11-2.873-.911-5.322-1.161-8.19-.331-3.732,2.084-7.075,3.25-10.627,1.7-5.177.743-10.8,1.161-16.252a54.3,54.3,0,0,1,.871-6c.528-2.728,1.3-5.711,3.61-7.261C618.759,262.791,623.24,264.2,625.846,261.7Z" transform="translate(-292.701 -170.912)" opacity="0.1"/>
      <path id="Path_59" data-name="Path 59" d="M626.846,259.7c2.049,6.048,1.219,12.769-.876,18.788a9.791,9.791,0,0,0-.871,4.574,14.379,14.379,0,0,0,.72,2.322,10.994,10.994,0,0,1,.313,5.636,3.529,3.529,0,0,1-.644,1.555,7.234,7.234,0,0,0-.58.673c-.8,1.242.766,2.78.58,4.249-.139,1.219-1.375,1.939-2.24,2.815-2.444,2.478-1.973,6.512-1.335,9.937-2.966-.261-5.526-2.687-8.5-2.49a5.084,5.084,0,0,0-4.376,3.372c.11-2.873-.911-5.322-1.161-8.19-.331-3.732,2.084-7.075,3.25-10.627,1.7-5.177.743-10.8,1.161-16.252a54.306,54.306,0,0,1,.871-6c.528-2.728,1.3-5.711,3.61-7.261C619.759,260.791,624.239,262.2,626.846,259.7Z" transform="translate(-293.12 -170.073)" fill="#ff6584"/>
      <ellipse id="Ellipse_16" data-name="Ellipse 16" cx="17.412" cy="11.608" rx="17.412" ry="11.608" transform="translate(285.563 37.396)" fill="#3f3d56"/>
      <path id="Path_60" data-name="Path 60" d="M561.761,289.846a8.126,8.126,0,0,1,7.545-8.126h-.58a8.126,8.126,0,0,0,0,16.252,3.851,3.851,0,0,0,.58-.029A8.126,8.126,0,0,1,561.761,289.846Z" transform="translate(-273.296 -179.312)" opacity="0.05"/>
      <ellipse id="Ellipse_17" data-name="Ellipse 17" cx="6.385" cy="8.126" rx="6.385" ry="8.126" transform="translate(288.465 102.402)" fill="#ff6584"/>
      <path id="Path_61" data-name="Path 61" d="M614.145,289.846a8.126,8.126,0,0,0-7.545-8.126h.581a8.126,8.126,0,0,1,0,16.252,3.929,3.929,0,0,1-.581-.029A8.126,8.126,0,0,0,614.145,289.846Z" transform="translate(-292.597 -179.312)" opacity="0.05"/>
      <ellipse id="Ellipse_18" data-name="Ellipse 18" cx="6.385" cy="8.126" rx="6.385" ry="8.126" transform="translate(308.779 102.402)" fill="#ff6584"/>
      <path id="Path_62" data-name="Path 62" d="M575.012,199.748c-9.321,0-16.936-4.887-17.412-11.028v.58c0,6.385,7.8,11.608,17.412,11.608s17.412-5.224,17.412-11.608v-.58C591.955,194.861,584.34,199.748,575.012,199.748Z" transform="translate(-272.037 -140.29)" opacity="0.1"/>
      <path id="Path_63" data-name="Path 63" d="M361.956,125.089l-9.008,5.717,5.467-9.948a8.909,8.909,0,0,0-5.444-1.944h-.145a10.5,10.5,0,0,1-1.869-.133l-3.053,1.933,1.306-2.38a10.865,10.865,0,0,1-5.34-4.063l-5.462,3.482,3.471-6.286a16,16,0,0,0-12.241-6.187c-5.682,0-10.743,3.384-14.011,8.648a10.447,10.447,0,0,1-9.287,4.992h-.3c-6.274,0-11.359,7.116-11.359,15.886s5.084,15.886,11.359,15.886a8.538,8.538,0,0,0,3.953-.987,16.4,16.4,0,0,1,13.75-.273,14.342,14.342,0,0,0,11.689,0,16.408,16.408,0,0,1,13.622.261,8.544,8.544,0,0,0,3.918.969c6.274,0,11.359-7.11,11.359-15.886a20.181,20.181,0,0,0-2.374-9.687Z" transform="translate(-161.719 -105.28)" fill="#f2f2f2"/>
      <path id="Path_64" data-name="Path 64" d="M344.978,163.306a16.774,16.774,0,0,0-9.734,1.062,14.33,14.33,0,0,1-11.684,0,16.4,16.4,0,0,0-13.75.267,8.474,8.474,0,0,1-3.953.993c-5.578,0-10.21-5.613-11.179-13.019a10.7,10.7,0,0,0,2.786-3.007c3.268-5.264,8.329-8.642,14.011-8.642s10.685,3.337,13.93,8.549a10.749,10.749,0,0,0,9.258,5.084h.145C339.267,154.565,343.11,158.123,344.978,163.306Z" transform="translate(-161.719 -120.251)" opacity="0.03"/>
      <path id="Path_65" data-name="Path 65" d="M916.309,303.867l-4.492,2.85,2.728-4.957a4.435,4.435,0,0,0-2.722-.969h-.07a5.573,5.573,0,0,1-.934-.07l-1.521.964.65-1.161a5.456,5.456,0,0,1-2.664-2.026l-2.722,1.741,1.741-3.128A7.981,7.981,0,0,0,900.174,294a8.312,8.312,0,0,0-6.965,4.312,5.224,5.224,0,0,1-4.643,2.49h-.151c-3.128,0-5.665,3.546-5.665,7.923s2.536,7.911,5.665,7.911a4.247,4.247,0,0,0,1.973-.493,8.184,8.184,0,0,1,6.861-.133,7.145,7.145,0,0,0,5.8,0,8.172,8.172,0,0,1,6.8.133,4.232,4.232,0,0,0,1.95.482c3.128,0,5.665-3.546,5.665-7.923A10.112,10.112,0,0,0,916.309,303.867Z" transform="translate(-408.466 -184.465)" fill="#f2f2f2"/>
      <path id="Path_66" data-name="Path 66" d="M907.878,322.931a8.382,8.382,0,0,0-4.858.528,7.126,7.126,0,0,1-2.9.615,7.2,7.2,0,0,1-2.9-.627,8.126,8.126,0,0,0-6.855.134,4.265,4.265,0,0,1-1.974.493c-2.78,0-5.1-2.8-5.578-6.495a5.368,5.368,0,0,0,1.393-1.5,7.8,7.8,0,0,1,13.93-.046,5.363,5.363,0,0,0,4.643,2.536h.075C905.017,318.572,906.932,320.343,907.878,322.931Z" transform="translate(-408.492 -191.921)" opacity="0.03"/>
      <path id="Path_67" data-name="Path 67" d="M780.345,185.491l7.22,4.579-4.382-7.969a7.133,7.133,0,0,1,4.365-1.561h.116a8.589,8.589,0,0,0,1.5-.116l2.444,1.555-1.045-1.91a8.706,8.706,0,0,0,4.278-3.285l4.376,2.774-2.763-5.026a12.8,12.8,0,0,1,9.809-4.963c4.55,0,8.608,2.711,11.225,6.93a8.393,8.393,0,0,0,7.418,4h.25c5.026,0,9.1,5.7,9.1,12.728s-4.063,12.728-9.1,12.728a6.856,6.856,0,0,1-3.175-.789,13.123,13.123,0,0,0-11.028-.221,11.486,11.486,0,0,1-9.368,0,13.129,13.129,0,0,0-10.918.215,6.837,6.837,0,0,1-3.134.772c-5.026,0-9.1-5.7-9.1-12.728a16.157,16.157,0,0,1,1.915-7.714Z" transform="translate(-364.695 -132.255)" fill="#f2f2f2"/>
      <path id="Path_68" data-name="Path 68" d="M805.17,216.043a13.413,13.413,0,0,1,7.8.847,11.486,11.486,0,0,0,9.368,0,13.146,13.146,0,0,1,11.028.215,6.825,6.825,0,0,0,3.175.8c4.463,0,8.178-4.5,8.95-10.447a8.672,8.672,0,0,1-2.229-2.409c-2.618-4.22-6.675-6.924-11.231-6.924s-8.555,2.676-11.173,6.849a8.619,8.619,0,0,1-7.418,4.063h-.116C809.744,209.078,806.667,211.911,805.17,216.043Z" transform="translate(-375.915 -144.235)" opacity="0.03"/>
      <path id="Path_69" data-name="Path 69" d="M291.684,688.6c-2.4-4.434.319-9.867,3.442-13.82s6.936-8.073,6.855-13.112c-.116-7.243-7.806-11.521-13.93-15.358a67.905,67.905,0,0,1-12.514-10.047,18.276,18.276,0,0,1-3.848-5.148c-1.271-2.832-1.236-6.054-1.161-9.159q.4-15.5,1.532-30.971" transform="translate(-151.573 -309.078)" fill="none" stroke="#3f3d56" stroke-miterlimit="10" stroke-width="4"/>
      <path id="Path_70" data-name="Path 70" d="M253.071,582.207a11.266,11.266,0,0,1,5.642-9.287l2.525,5-.087-6.031a11.144,11.144,0,0,1,3.72-.447,11.295,11.295,0,1,1-11.8,10.767Z" transform="translate(-144.256 -300.87)" fill="#57b894"/>
      <path id="Path_71" data-name="Path 71" d="M286.884,709.789a11.295,11.295,0,1,0-.546-9.095l7.052,5.74-7.76-1.8A11.126,11.126,0,0,0,286.884,709.789Z" transform="translate(-157.922 -352.017)" fill="#57b894"/>
      <path id="Path_72" data-name="Path 72" d="M289.61,667.575a11.295,11.295,0,0,0,3.581-22.16l.058,4.643-2.56-5.067h-.029a11.3,11.3,0,1,0-1.051,22.575Z" transform="translate(-155.071 -331.731)" fill="#57b894"/>
      <path id="Path_73" data-name="Path 73" d="M242.375,636.148a11.295,11.295,0,1,0-5-21.139l2,5.473-4.1-3.947a11.248,11.248,0,0,0-3.651,7.8,11.028,11.028,0,0,0,.284,3.111A11.289,11.289,0,0,0,242.375,636.148Z" transform="translate(-135.254 -318.552)" fill="#57b894"/>
      <path id="Path_74" data-name="Path 74" d="M254.777,589.672c2.606.29,5.142,1.1,7.76,1.259s5.485-.464,7.139-2.5a35.741,35.741,0,0,0,2.1-3.674,8.021,8.021,0,0,1,2.844-2.682,11.295,11.295,0,1,1-21.115,7.5A11.489,11.489,0,0,1,254.777,589.672Z" transform="translate(-144.441 -305.339)" opacity="0.1"/>
      <path id="Path_75" data-name="Path 75" d="M242.574,640.822a11.3,11.3,0,0,0,10.743-16.112,8.323,8.323,0,0,0-2.275,2.275,36.032,36.032,0,0,1-2.235,3.732c-1.741,2.066-4.765,2.745-7.493,2.618s-5.357-.894-8.074-1.161c-.371-.035-.755-.058-1.161-.07A11.289,11.289,0,0,0,242.574,640.822Z" transform="translate(-135.453 -323.227)" opacity="0.1"/>
      <path id="Path_76" data-name="Path 76" d="M289.973,672.413a11.295,11.295,0,0,0,10.836-15.9,9.1,9.1,0,0,0-2.391,2.322,37.931,37.931,0,0,1-2.449,3.807c-1.91,2.124-5.108,2.9-8,2.8-2.8-.058-5.491-.749-8.271-.958A11.306,11.306,0,0,0,289.973,672.413Z" transform="translate(-155.434 -336.569)" opacity="0.1"/>
      <path id="Path_77" data-name="Path 77" d="M287.79,715.027a11.295,11.295,0,0,0,20.587-9.217,11.358,11.358,0,0,0-2.478,2.211,44.244,44.244,0,0,1-3.024,4.011c-2.322,2.269-6.036,3.2-9.356,3.291A49.306,49.306,0,0,1,287.79,715.027Z" transform="translate(-158.828 -357.255)" opacity="0.1"/>
      <path id="Path_78" data-name="Path 78" d="M872.175,699.5c-1.741-3.274.238-7.29,2.548-10.209s5.119-5.961,5.055-9.681c-.081-5.351-5.763-8.509-10.3-11.347a50.077,50.077,0,0,1-9.252-7.441,13.673,13.673,0,0,1-2.844-3.807,15.515,15.515,0,0,1-.853-6.762q.3-11.446,1.161-22.88" transform="translate(-397.456 -324.343)" fill="none" stroke="#3f3d56" stroke-miterlimit="10" stroke-width="4"/>
      <path id="Path_79" data-name="Path 79" d="M843.64,620.91a8.358,8.358,0,0,1,4.167-6.837l1.869,3.7-.058-4.475a8.473,8.473,0,0,1,2.751-.331,8.346,8.346,0,1,1-8.706,7.946Z" transform="translate(-392.056 -318.295)" fill="#57b894"/>
      <path id="Path_80" data-name="Path 80" d="M868.621,715.21a8.341,8.341,0,1,0-.406-6.715l5.224,4.243-5.729-1.329A8.246,8.246,0,0,0,868.621,715.21Z" transform="translate(-402.156 -356.097)" fill="#57b894"/>
      <path id="Path_81" data-name="Path 81" d="M870.625,683.93a8.346,8.346,0,0,0,8.706-7.946,8.235,8.235,0,0,0-.72-3.8,8.364,8.364,0,0,0-5.357-4.643l.041,3.442-1.886-3.744h0a8.353,8.353,0,1,0-.784,16.687Z" transform="translate(-400.039 -341.069)" fill="#57b894"/>
      <path id="Path_82" data-name="Path 82" d="M835.731,660.76a8.346,8.346,0,1,0-3.686-15.613l1.474,4.063-3.035-2.9a8.287,8.287,0,0,0-2.693,5.758,8.13,8.13,0,0,0,.209,2.322,8.341,8.341,0,0,0,7.731,6.373Z" transform="translate(-385.401 -331.353)" fill="#57b894"/>
      <path id="Path_83" data-name="Path 83" d="M844.917,626.437c1.921.215,3.8.813,5.729.934a6.226,6.226,0,0,0,5.276-1.846,25,25,0,0,0,1.544-2.716,5.969,5.969,0,0,1,2.1-1.979A8.332,8.332,0,1,1,844,626.367C844.284,626.379,844.58,626.4,844.917,626.437Z" transform="translate(-392.207 -321.599)" opacity="0.1"/>
      <path id="Path_84" data-name="Path 84" d="M835.891,664.219a8.352,8.352,0,0,0,7.94-11.9A6.259,6.259,0,0,0,842.148,654a24.888,24.888,0,0,1-1.648,2.757,6.832,6.832,0,0,1-5.537,1.939c-2.014-.093-3.953-.667-5.961-.848-.279-.029-.581-.046-.842-.052A8.341,8.341,0,0,0,835.891,664.219Z" transform="translate(-385.561 -334.811)" opacity="0.1"/>
      <path id="Path_85" data-name="Path 85" d="M870.9,687.512a8.346,8.346,0,0,0,8.706-7.946,8.236,8.236,0,0,0-.72-3.8,6.72,6.72,0,0,0-1.741,1.695,28.593,28.593,0,0,1-1.811,2.809,7.72,7.72,0,0,1-5.909,2.072c-2.136-.052-4.063-.551-6.106-.708A8.335,8.335,0,0,0,870.9,687.512Z" transform="translate(-400.314 -344.651)" opacity="0.1"/>
      <path id="Path_86" data-name="Path 86" d="M869.28,719.082a8.346,8.346,0,0,0,15.213-6.8,8.281,8.281,0,0,0-1.834,1.631,33.86,33.86,0,0,1-2.235,2.966c-1.706,1.672-4.458,2.362-6.907,2.426A35.36,35.36,0,0,1,869.28,719.082Z" transform="translate(-402.814 -359.97)" opacity="0.1"/>
      <path id="Path_87" data-name="Path 87" d="M997.725,695.608c2.4-4.434-.319-9.867-3.442-13.819s-6.965-8.074-6.854-13.112c.116-7.244,7.807-11.521,13.93-15.358a67.91,67.91,0,0,0,12.519-10.047,18.277,18.277,0,0,0,3.848-5.148c1.271-2.832,1.236-6.054,1.161-9.159q-.366-15.52-1.526-30.965" transform="translate(-452.387 -312.019)" fill="none" stroke="#3f3d56" stroke-miterlimit="10" stroke-width="4"/>
      <path id="Path_88" data-name="Path 88" d="M1042.807,589.194a11.283,11.283,0,0,0-5.642-9.287l-2.531,5,.081-6.054a11.161,11.161,0,0,0-3.72-.447,11.295,11.295,0,1,0,11.811,10.784Z" transform="translate(-466.15 -303.794)" fill="#57b894"/>
      <path id="Path_89" data-name="Path 89" d="M1008.994,716.789a11.295,11.295,0,1,1,.546-9.1l-7.052,5.74,7.76-1.8A11.124,11.124,0,0,1,1008.994,716.789Z" transform="translate(-452.483 -354.955)" fill="#57b894"/>
      <path id="Path_90" data-name="Path 90" d="M1006.252,674.575a11.295,11.295,0,0,1-3.581-22.16l-.058,4.643,2.589-5.067h0a11.3,11.3,0,1,1,1.051,22.575Z" transform="translate(-455.319 -334.668)" fill="#57b894"/>
      <path id="Path_91" data-name="Path 91" d="M1053.509,643.148a11.295,11.295,0,1,1,5-21.139l-2,5.473,4.1-3.947a11.295,11.295,0,0,1-7.1,19.612Z" transform="translate(-475.157 -321.49)" fill="#57b894"/>
      <path id="Path_92" data-name="Path 92" d="M1041.289,596.672c-2.606.29-5.143,1.1-7.76,1.259s-5.485-.464-7.139-2.5a35.649,35.649,0,0,1-2.1-3.674,8.022,8.022,0,0,0-2.844-2.682,11.295,11.295,0,1,0,21.115,7.5A12.033,12.033,0,0,0,1041.289,596.672Z" transform="translate(-466.153 -308.277)" opacity="0.1"/>
      <path id="Path_93" data-name="Path 93" d="M1053.5,647.822a11.3,11.3,0,0,1-10.743-16.112,8.324,8.324,0,0,1,2.275,2.275,36.045,36.045,0,0,0,2.235,3.732c1.741,2.066,4.765,2.745,7.493,2.618s5.357-.894,8.074-1.161c.371-.035.755-.058,1.161-.07a11.289,11.289,0,0,1-10.494,8.718Z" transform="translate(-475.15 -326.164)" opacity="0.1"/>
      <path id="Path_94" data-name="Path 94" d="M1006.262,679.413a11.295,11.295,0,0,1-10.836-15.9,9.1,9.1,0,0,1,2.391,2.322,37.928,37.928,0,0,0,2.449,3.807c1.91,2.124,5.108,2.9,8,2.8,2.8-.058,5.491-.749,8.271-.958A11.306,11.306,0,0,1,1006.262,679.413Z" transform="translate(-455.329 -339.507)" opacity="0.1"/>
      <path id="Path_95" data-name="Path 95" d="M1009.065,722.027a11.295,11.295,0,0,1-20.558-9.217,11.363,11.363,0,0,1,2.478,2.211,44.205,44.205,0,0,0,3.024,4.011c2.322,2.269,6.036,3.2,9.356,3.291A49.294,49.294,0,0,0,1009.065,722.027Z" transform="translate(-452.555 -360.192)" opacity="0.1"/>
      <path id="Path_96" data-name="Path 96" d="M276.83,749.892s8.909-.279,11.608-2.188,13.715-4.2,14.383-1.161,13.4,15.259,3.332,15.34-23.385-1.567-26.066-3.2S276.83,749.892,276.83,749.892Z" transform="translate(-154.23 -373.727)" fill="#656380"/>
      <path id="Path_97" data-name="Path 97" d="M306.321,764.324c-10.064.081-23.385-1.567-26.066-3.2-2.043-1.242-2.856-5.705-3.128-7.766h-.3s.58,7.185,3.245,8.822,16,3.279,26.066,3.2c2.9,0,3.906-1.057,3.854-2.583C309.588,763.732,308.486,764.307,306.321,764.324Z" transform="translate(-154.23 -377.207)" opacity="0.2"/>
      <path id="Path_98" data-name="Path 98" d="M865,749.448s5.224-.157,6.773-1.277,8-2.449,8.393-.656,7.818,8.9,1.944,8.95-13.651-.911-15.218-1.869S865,749.448,865,749.448Z" transform="translate(-401.019 -374.385)" fill="#656380"/>
      <path id="Path_99" data-name="Path 99" d="M882.192,757.872c-5.874.047-13.651-.917-15.218-1.869-1.161-.726-1.666-3.331-1.822-4.533H865s.331,4.2,1.892,5.148,9.345,1.921,15.218,1.869c1.695,0,2.281-.615,2.246-1.509C884.1,757.524,883.451,757.86,882.192,757.872Z" transform="translate(-401.019 -376.414)" opacity="0.2"/>
      <path id="Path_100" data-name="Path 100" d="M975.83,753.892s8.909-.279,11.608-2.188,13.715-4.2,14.383-1.161,13.4,15.259,3.331,15.34-23.385-1.567-26.066-3.2S975.83,753.892,975.83,753.892Z" transform="translate(-447.522 -375.405)" fill="#656380"/>
      <path id="Path_101" data-name="Path 101" d="M1005.321,768.324c-10.064.081-23.385-1.567-26.066-3.2-2.043-1.242-2.856-5.706-3.129-7.766h-.3s.58,7.185,3.245,8.822,16,3.279,26.066,3.2c2.9,0,3.906-1.056,3.854-2.583C1008.588,767.732,1007.486,768.307,1005.321,768.324Z" transform="translate(-447.522 -378.885)" opacity="0.2"/>
    </g>
  </g>
</svg>
