<svg xmlns="http://www.w3.org/2000/svg" xmlns:xlink="http://www.w3.org/1999/xlink" width="512" height="512" viewBox="0 0 512 512">
  <defs>
    <clipPath id="clip-favicon">
      <rect width="512" height="512"/>
    </clipPath>
  </defs>
  <g id="favicon" clip-path="url(#clip-favicon)">
    <g id="Rectangle_10" data-name="Rectangle 10" fill="#262626" stroke="#707070" stroke-width="1">
      <rect width="512" height="512" rx="256" stroke="none"/>
      <rect x="0.5" y="0.5" width="511" height="511" rx="255.5" fill="none"/>
    </g>
    <g id="pi-mathematical-constant-symbol" transform="translate(180.374 149.981)">
      <g id="Group_4" data-name="Group 4" transform="translate(-98 -67.967)">
        <g id="pi" transform="translate(0 0)">
          <g id="Group_6" data-name="Group 6" transform="translate(0 0)">
            <g id="Group_5" data-name="Group 5">
              <path id="Path_93" data-name="Path 93" d="M448.181,322.146A15.173,15.173,0,0,0,432.72,336.97a80.965,80.965,0,0,1-7.665,29.611c-9.091,18.506-24.254,27.5-46.355,27.5-11.167,0-19.487-3.256-25.437-9.955-13.139-14.794-12.957-43.76-11.784-53.637.021-.173.04-.347.055-.52.077-.875,7.826-88.309,13.279-162.712a15.145,15.145,0,0,0-30.208-2.214c-5.312,72.473-12.813,157.4-13.225,162.054a139.877,139.877,0,0,0-.036,26.947c2,21.107,8.454,37.96,19.176,50.089,11.7,13.241,28.364,20.239,48.179,20.239,18.593,0,34.748-4.7,48.018-13.97,10.665-7.45,19.253-17.7,25.524-30.467A111.4,111.4,0,0,0,463,337.608,15.144,15.144,0,0,0,448.181,322.146Z" transform="translate(-114.878 -76.24)" fill="#3fde89"/>
              <path id="Path_94" data-name="Path 94" d="M319.679,52.644A72.948,72.948,0,0,0,347.35,18.6a13.607,13.607,0,0,0-25.313-9.99C315.07,26.235,297.284,38.08,277.78,38.08H99.956C68.9,38.08,41.817,51.767,21.64,77.66A132.265,132.265,0,0,0,.764,116.4,13.608,13.608,0,0,0,26.8,124.341,106.4,106.4,0,0,1,43.62,93.727C58.59,74.849,77.545,65.278,99.957,65.278h24.752c-.317,5.052-.64,10.436-.974,16.04-2.7,45.154-6.394,107-16.847,157.93-10.811,52.676-26.8,81.686-45.032,81.686a13.6,13.6,0,1,0,0,27.2c19.338,0,35.6-11.335,48.335-33.691,9.517-16.708,17.158-39.515,23.358-69.729,10.844-52.835,14.606-115.8,17.354-161.773.371-6.215.727-12.17,1.076-17.661h125.8A75.466,75.466,0,0,0,319.679,52.644Z" transform="translate(-0.173 0)" fill="#3fde89"/>
            </g>
          </g>
        </g>
      </g>
    </g>
  </g>
</svg>
