<svg xmlns="http://www.w3.org/2000/svg" xmlns:xlink="http://www.w3.org/1999/xlink" width="436" height="385" viewBox="0 0 436 385">
  <defs>
    <clipPath id="clip-path">
      <rect id="Rectangle_37" data-name="Rectangle 37" width="436" height="385" transform="translate(-0.483 -0.123)" fill="#fff" stroke="#707070" stroke-width="1"/>
    </clipPath>
  </defs>
  <g id="Mask_Group_2" data-name="Mask Group 2" transform="translate(0.483 0.123)" clip-path="url(#clip-path)">
    <g id="Group_9" data-name="Group 9" transform="translate(-10.665 17.756)">
      <circle id="Ellipse_19" data-name="Ellipse 19" cx="41.186" cy="41.186" r="41.186" transform="translate(75.491 70.111)" fill="#ff6584"/>
      <path id="Path_102" data-name="Path 102" d="M591.145,276.46V384.788A159.879,159.879,0,0,1,431.258,544.67H137V436.342a160.03,160.03,0,0,1,101.8-149,156.987,156.987,0,0,1,15.576-5.164c.1-.034.211-.064.314-.088q2.339-.64,4.708-1.206c.088-.025.172-.044.26-.064a159.937,159.937,0,0,1,29.657-4.183c1.182-.054,2.364-.1,3.556-.123.427-.015.858-.024,1.295-.024q1.354-.029,2.722-.029Z" transform="translate(-137 -177.902)" fill="#3f3d56"/>
      <path id="Path_103" data-name="Path 103" d="M348.874,681c-116.766,0-211.467,31.487-211.864,70.378H560.738C560.341,712.487,465.64,681,348.874,681Z" transform="translate(-137.005 -384.04)" fill="#f2f2f2"/>
      <g id="Group_3" data-name="Group 3" transform="translate(133.399 328.484)" opacity="0.1">
        <ellipse id="Ellipse_20" data-name="Ellipse 20" cx="39.235" cy="10.899" rx="39.235" ry="10.899"/>
      </g>
      <g id="Group_4" data-name="Group 4" transform="translate(218.244 308.866)" opacity="0.1">
        <ellipse id="Ellipse_21" data-name="Ellipse 21" cx="39.235" cy="10.899" rx="39.235" ry="10.899"/>
      </g>
      <g id="Group_5" data-name="Group 5" transform="translate(137.18 329.605)" opacity="0.1">
        <ellipse id="Ellipse_22" data-name="Ellipse 22" cx="35.5" cy="10" rx="35.5" ry="10" transform="translate(0.002 -0.484)"/>
      </g>
      <g id="Group_6" data-name="Group 6" transform="translate(222.633 309.629)" opacity="0.1">
        <ellipse id="Ellipse_23" data-name="Ellipse 23" cx="35" cy="9.5" rx="35" ry="9.5" transform="translate(-0.451 0.492)"/>
      </g>
      <circle id="Ellipse_24" data-name="Ellipse 24" cx="3" cy="3" r="3" transform="translate(64.182 139.121)" fill="#f2f2f2"/>
      <ellipse id="Ellipse_25" data-name="Ellipse 25" cx="4" cy="3.5" rx="4" ry="3.5" transform="translate(359.182 273.121)" fill="#f2f2f2"/>
      <ellipse id="Ellipse_26" data-name="Ellipse 26" cx="4" cy="3.5" rx="4" ry="3.5" transform="translate(197.182 163.121)" fill="#f2f2f2"/>
      <circle id="Ellipse_27" data-name="Ellipse 27" cx="2" cy="2" r="2" transform="translate(369.182 143.121)" fill="#ff6584"/>
      <circle id="Ellipse_28" data-name="Ellipse 28" cx="1.5" cy="1.5" r="1.5" transform="translate(74.182 242.121)" fill="#ff6584"/>
      <path id="Path_104" data-name="Path 104" d="M91.962,580.394h-.894V579.5h-.175v.894H90v.175h.894v.894h.175v-.894h.894Z" transform="translate(-45.861 -295.292)" fill="#f2f2f2"/>
      <path id="Path_105" data-name="Path 105" d="M676.962,432.394h-.894V431.5h-.175v.894H675v.175h.894v.894h.175v-.894h.894Z" transform="translate(-343.955 -219.876)" fill="#f2f2f2"/>
      <path id="Path_106" data-name="Path 106" d="M827.962,402.394h-.894V401.5h-.175v.894H826v.175h.894v.894h.175v-.894h.894Z" transform="translate(-420.899 -204.59)" fill="#f2f2f2"/>
      <path id="Path_107" data-name="Path 107" d="M502.962,482.394h-.894V481.5h-.175v.894H501v.175h.894v.894h.175v-.894h.894Z" transform="translate(-255.291 -245.355)" fill="#f2f2f2"/>
      <path id="Path_108" data-name="Path 108" d="M783.962,492.394h-.894V491.5h-.175v.894H782v.175h.894v.894h.175v-.894h.894Z" transform="translate(-398.478 -250.45)" fill="#f2f2f2"/>
      <path id="Path_109" data-name="Path 109" d="M444.962,535.394h-.894V534.5h-.175v.894H443v.175h.894v.894h.175v-.894h.894Z" transform="translate(-225.736 -272.361)" fill="#f2f2f2"/>
      <path id="Path_110" data-name="Path 110" d="M572.962,537.394h-.894V536.5h-.175v.894H571v.175h.894v.894h.175v-.894h.894Z" transform="translate(-290.961 -273.381)" fill="#f2f2f2"/>
      <path id="Path_111" data-name="Path 111" d="M93.962,367.394h-.894V366.5h-.175v.894H92v.175h.894v.894h.175v-.894h.894Z" transform="translate(-46.88 -186.755)" fill="#f2f2f2"/>
      <rect id="Rectangle_33" data-name="Rectangle 33" width="1.41" height="28.476" transform="translate(332.024 113.138)" fill="#e6e6e6"/>
      <path id="Path_112" data-name="Path 112" d="M598.273,385.046,585.3,414.932l2.538,4.229-.846,1.41,5.921,3.1v-1.692l2.256-.564,9.586-17.481Z" transform="translate(-298.249 -196.205)" fill="#e6e6e6"/>
      <path id="Path_113" data-name="Path 113" d="M723.953,532.407s-9.586,14.943,1.128,17.2,1.974-15.789,1.974-15.789Z" transform="translate(-434.079 -308.323)" fill="#e6e6e6"/>
      <path id="Path_114" data-name="Path 114" d="M748.6,514.633l-3.383,11-1.41,14.1-2.537,5.075,2.819,22.838,4.511,4.511,1.974,22.556v10.15l5.357,9.3-6.9,9.791a3.12,3.12,0,0,0,2.448,4.919,12.888,12.888,0,0,0,6.143-1.741c8.176-4.229,7.894-8.176,7.894-8.176s5.075,0,5.357-3.947-3.1-32.142-3.1-32.142l-3.1-12.124V537.753H765.8l.564,28.194,2.538,10.432.282,4.511L772.852,626s16.353,4.511,17.2.846-6.2-5.921-6.2-5.921l4.229-8.176V596.961l-1.41-3.383L784.13,570.74l4.229-4.511,2.255-2.819V540.854l-2.819-8.74-.846-7.331-4.511-11.278S761.856,506.739,748.6,514.633Z" transform="translate(-444.916 -297.316)" fill="#fff"/>
      <path id="Path_115" data-name="Path 115" d="M786.429,366.419A21.428,21.428,0,1,1,747.8,353.638l.006-.006a21.426,21.426,0,0,1,38.621,12.786Z" transform="translate(-446.088 -212.821)" fill="#ffc107"/>
      <g id="Group_7" data-name="Group 7" transform="translate(301.157 133.297)" opacity="0.1">
        <path id="Path_116" data-name="Path 116" d="M787.2,358.709l-1.748,10.012c-13.136-34.1-34.031-13.153-34.392-12.786a21.428,21.428,0,0,1,36.14,2.774Z" transform="translate(-751.059 -347.293)"/>
      </g>
      <path id="Path_117" data-name="Path 117" d="M788.348,356.41,786.6,366.422c-13.136-34.1-34.031-13.153-34.392-12.786a21.428,21.428,0,0,1,36.14,2.774Z" transform="translate(-450.488 -212.824)" fill="#fff"/>
      <path id="Path_118" data-name="Path 118" d="M781.6,359.541l2.937,10.2s-6.1,18.275-34.373,18.912l-.927,2.611-3.1.846-1.41,5.921,3.947,37.5s-1.692,3.665,1.128,3.383c0,0,18.608-6.2,34.679-.564,0,0,3.383,1.41,2.538-1.692,0,0,11.278-7.049,10.432-14.379s.846-41.446.846-41.446,1.692-9.868-3.383-12.124C794.91,368.705,787.456,358.272,781.6,359.541Z" transform="translate(-446.673 -220.182)" fill="#fff"/>
      <path id="Path_119" data-name="Path 119" d="M793.142,504.918s-17.665,1.774-12.775,11.57,13.6-8.264,13.6-8.264Z" transform="translate(-464.4 -294.315)" fill="#e6e6e6"/>
      <path id="Path_120" data-name="Path 120" d="M813.772,415.051a11.973,11.973,0,0,0-1.974,9.586c1.128,5.921,5.357,19.172,5.357,19.172l-14.943,13.815,4.511,6.2,20.3-10.432,4.511-2.819h0A116.969,116.969,0,0,0,823.25,417.4l-.738-1.788S817.155,413.359,813.772,415.051Z" transform="translate(-475.967 -248.202)" fill="#e6e6e6"/>
      <circle id="Ellipse_29" data-name="Ellipse 29" cx="5.216" cy="5.216" r="5.216" transform="translate(331.178 146.408)" fill="#e6e6e6"/>
      <circle id="Ellipse_30" data-name="Ellipse 30" cx="3.806" cy="3.806" r="3.806" transform="translate(328.923 109.191)" fill="#e6e6e6"/>
      <path id="Path_121" data-name="Path 121" d="M478.962,351.394h-.894V350.5h-.175v.894H477v.175h.894v.894h.175v-.894h.894Z" transform="translate(-243.062 -178.602)" fill="#f2f2f2"/>
      <path id="Path_122" data-name="Path 122" d="M642.962,295.394h-.894V294.5h-.175v.894H641v.175h.894v.894h.175v-.894h.894Z" transform="translate(-326.63 -150.066)" fill="#f2f2f2"/>
      <path id="Path_123" data-name="Path 123" d="M624.962,312.394h-.894V311.5h-.175v.894H623v.175h.894v.894h.175v-.894h.894Z" transform="translate(-317.458 -158.729)" fill="#f2f2f2"/>
      <ellipse id="Ellipse_31" data-name="Ellipse 31" cx="2.5" cy="2" rx="2.5" ry="2" transform="translate(270.182 129.121)" fill="#f2f2f2"/>
      <path id="Path_124" data-name="Path 124" d="M416.1,220.274c0,136.853-17.209,136.853-38.43,136.853-10.972,0-20.87,0-27.869-18.9a118.063,118.063,0,0,1-5.281-21.457c-3.356-20.271-5.281-50.734-5.281-96.493a262.981,262.981,0,0,1,5.281-50.957c1.537-7.756,3.333-15.243,5.281-22.384,2.382-8.742,4.993-16.962,7.627-24.484,1.766-5.058,3.55-9.8,5.281-14.187A304.9,304.9,0,0,1,377.669,75.5S416.1,144.692,416.1,220.274Z" transform="translate(-240.053 -75.5)" fill="#f2f2f2"/>
      <g id="Group_8" data-name="Group 8" transform="translate(117.374 32.763)" opacity="0.1">
        <path id="Path_125" data-name="Path 125" d="M381.605,142.3V380.9h-5.281V156.49C378.091,151.432,379.874,146.686,381.605,142.3Z" transform="translate(-376.325 -142.303)"/>
      </g>
      <circle id="Ellipse_32" data-name="Ellipse 32" cx="21.122" cy="21.122" r="21.122" transform="translate(115.32 73.341)" fill="#3f3d56"/>
      <path id="Path_126" data-name="Path 126" d="M412.638,607.569c-4.7-11.56-10.727-13.555-14.668-13.381v-1.873H336.364v1.873c-3.942-.173-9.972,1.821-14.668,13.381-7.627,18.775,4.694,51.045,4.694,51.045s-6.585-45.006,15.281-45.3a25.876,25.876,0,0,0,6.86,6.224v12.1h35.311v-11a25.848,25.848,0,0,0,8.821-7.326c21.866.3,15.281,45.3,15.281,45.3S420.266,626.345,412.638,607.569Z" transform="translate(-229.845 -338.85)" fill="#ffc107"/>
      <circle id="Ellipse_33" data-name="Ellipse 33" cx="16.428" cy="16.428" r="16.428" transform="translate(120.014 78.034)" fill="#ffc107"/>
      <path id="Path_127" data-name="Path 127" d="M981.991,276.46h-.981a40.257,40.257,0,0,0,40.211,39.99v-.981a39.274,39.274,0,0,1-39.23-39.009Z" transform="translate(-567.076 -177.902)" fill="#ffc107"/>
      <path id="Path_128" data-name="Path 128" d="M944.991,276.46h-.981a58.418,58.418,0,0,0,58.357,58.136v-.981A57.441,57.441,0,0,1,944.991,276.46Z" transform="translate(-548.223 -177.902)" fill="#ffc107"/>
      <path id="Path_129" data-name="Path 129" d="M906.981,276.46H906a77.086,77.086,0,0,0,77,76.773v-.981A76.1,76.1,0,0,1,906.981,276.46Z" transform="translate(-528.854 -177.902)" fill="#ffc107"/>
    </g>
  </g>
</svg>
