<svg xmlns="http://www.w3.org/2000/svg" xmlns:xlink="http://www.w3.org/1999/xlink" width="512" height="512" viewBox="0 0 512 512">
  <defs>
    <clipPath id="clip-path">
      <rect id="Rectangle_6" data-name="Rectangle 6" width="512" height="512" transform="translate(1184 284)" fill="#fff" stroke="#707070" stroke-width="1"/>
    </clipPath>
  </defs>
  <g id="Normal_Mode" data-name="Normal Mode" transform="translate(-1184 -284)" clip-path="url(#clip-path)">
    <g id="Group_2" data-name="Group 2" transform="translate(1184 284)">
      <path id="Path_70" data-name="Path 70" d="M748.338,733.716c0,19.693-106.433,35.659-237.728,35.659s-237.728-15.966-237.728-35.659c0-13.941,53.351-26.02,131.1-31.878,32.063-2.423,68.289-3.781,106.625-3.781,15.759,0,31.158.23,46.05.667C665.915,701.945,748.338,716.385,748.338,733.716Z" transform="translate(-272.882 -246.287)" fill="#626177"/>
      <ellipse id="Ellipse_9" data-name="Ellipse 9" cx="91.257" cy="11.12" rx="91.257" ry="11.12" transform="translate(115.797 472.476)" opacity="0.1"/>
      <ellipse id="Ellipse_10" data-name="Ellipse 10" cx="86.272" cy="92.024" rx="86.272" ry="92.024" transform="translate(120.398 307.6)" fill="#626177"/>
      <rect id="Rectangle_1" data-name="Rectangle 1" width="53.68" height="49.079" transform="translate(180.213 454.071)" fill="#25a6df"/>
      <path id="Path_71" data-name="Path 71" d="M395.567,607.614,392.5,624.485l19.938,3.068,13.037-7.669-.767-12.27Z" transform="translate(-91.506 -141.657)" fill="#575a89"/>
      <path id="Path_72" data-name="Path 72" d="M536.524,303.422s-1.534,17.638-5.368,18.4,8.435,31.441,8.435,31.441H558l14.57-3.834-6.9-16.871s-9.2-12.27-2.3-22.239S536.524,303.422,536.524,303.422Z" transform="translate(-332.922 -154.179)" fill="#a0616a"/>
      <path id="Path_73" data-name="Path 73" d="M536.524,303.422s-1.534,17.638-5.368,18.4,8.435,31.441,8.435,31.441H558l14.57-3.834-6.9-16.871s-9.2-12.27-2.3-22.239S536.524,303.422,536.524,303.422Z" transform="translate(-332.922 -154.179)" opacity="0.1"/>
      <path id="Path_74" data-name="Path 74" d="M485.306,478.624s-19.938,38.343-3.834,46.012,19.938,6.9,19.938,9.2-3.067,1.534-1.534,5.368-3.067,19.172,1.534,28.374,3.067,16.1,3.067,16.1,0,.767,1.534,3.834,2.3,5.368,1.534,6.9-5.368,11.5-.767,13.8,28.374,3.834,30.675,0-2.3-6.135,0-8.435,3.834-3.068,2.3-4.6-3.068-20.705-3.068-20.705,3.834-22.239,2.3-25.307-3.834-6.135-2.3-8.435,3.068-1.534,3.834-4.6,2.3-9.969,2.3-9.969l8.436-.767,19.938,3.834s22.239,24.54,46.779,32.208c0,0,6.9,6.9,9.2,6.9s2.3,0,1.534,1.534-3.068,1.534-1.534,3.067,3.834-.767,2.3,1.534-3.068,2.3-1.534,3.834-.767,9.969-.767,10.736-6.9,72.852-4.6,74.386,34.509,6.135,36.81,0-1.534-13.8-1.534-13.8,11.5-92.024,8.436-98.159-13.8-33.742-71.318-51.38c0,0-16.1-3.067-16.1-5.368s-1.534-16.871-4.6-17.638-20.705-1.534-20.705-1.534l-22.239,6.9-30.675-5.368Z" transform="translate(-320.047 -194.414)" fill="#2f2e41"/>
      <path id="Path_75" data-name="Path 75" d="M521.863,646.858l-3.834,13.8s-3.068,22.239.767,27.607c3.012,4.216,8.389,9.379,18.362,10.285a12.324,12.324,0,0,0,12.867-8.526,3.834,3.834,0,0,0,.212-.993c0-1.534-2.3-19.939-2.3-19.939L544.1,649.925l-.767-5.368Z" transform="translate(-329.763 -233.814)" fill="#2f2e41"/>
      <path id="Path_76" data-name="Path 76" d="M667.507,731.4s-3.834-3.834-4.6,0-3.834,19.938,1.534,20.705,56.748,8.436,62.116,5.368,15.337-7.669,9.2-9.969-23.773-9.2-23.773-9.2-9.969-13.037-11.5-13.8-9.969.767-13.8,3.834S667.507,731.4,667.507,731.4Z" transform="translate(-363.445 -252.406)" fill="#2f2e41"/>
      <circle id="Ellipse_11" data-name="Ellipse 11" cx="23.773" cy="23.773" r="23.773" transform="translate(198.234 117.801)" fill="#a0616a"/>
      <path id="Path_77" data-name="Path 77" d="M541.353,354.257l-9.2-9.969-10.2-19.938s-7.437-2.3-8.971,1.534-29.141,16.1-29.141,16.1,6.9,64.417,3.834,70.552-8.435,30.675-3.834,32.975,26.073,0,32.975,3.067,26.84,3.067,32.208-.767,6.9-6.9,12.27-4.6c4.57,1.959,15.254-65,18.329-84.954a9.083,9.083,0,0,0-3.764-8.826c-6.881-4.827-19.273-13.144-21.467-12.047C551.322,338.919,541.353,354.257,541.353,354.257Z" transform="translate(-321.646 -159.002)" fill="#488d7c"/>
      <path id="Path_78" data-name="Path 78" d="M598.764,359.557h0a9.1,9.1,0,0,1,6.833,7.819l6.2,55.831s-15.337,32.975-23.006,10.736S598.764,359.557,598.764,359.557Z" transform="translate(-346.082 -167.37)" fill="#488d7c"/>
      <path id="Path_79" data-name="Path 79" d="M596.635,448.158l16.871-4.6s3.067,21.472,6.135,21.472S608.905,477.3,602,475.765s-16.871-6.9-17.638-10.736,6.9-19.938,6.9-19.938Z" transform="translate(-345.487 -186.954)" fill="#488d7c"/>
      <path id="Path_80" data-name="Path 80" d="M534.257,291.417c1.617-3.564,1.336-7.722,2.672-11.4a13.594,13.594,0,0,1,20.669-6.427c1.719,1.226,3.443,2.948,5.541,2.714,2.26-.252,4.275-2.773,6.353-1.849,2.3,1.024,1.681,5.151,4.014,6.1a2.949,2.949,0,0,0,3.387-1.392,8.608,8.608,0,0,0,.986-3.816c.322-3.271.613-6.732-.806-9.7a23.24,23.24,0,0,1-1.555-3.136,10.732,10.732,0,0,1-.3-3.094c-.013-3.844-.294-7.854-2.228-11.176-2.147-3.686-6.115-6.044-10.255-7.072a39.125,39.125,0,0,0-12.728-.511c-7.027.595-14.355,1.87-19.891,6.238a7.782,7.782,0,0,0-1.912,2.009,10.373,10.373,0,0,0-1.018,2.946,60.926,60.926,0,0,1-5.343,14.016,30.407,30.407,0,0,0-2.757,5.955,7.709,7.709,0,0,0,.682,6.335c1,1.478,2.6,2.266,3.857,3.474s1.828,3.5,3.207,4.407c1.2.792,2.647.233,3.875,1.072C532.286,288.192,532.4,290.553,534.257,291.417Z" transform="translate(-330.196 -139.588)" fill="#2f2e41"/>
      <path id="Path_81" data-name="Path 81" d="M564.382,377.158l2.3-4.6s33.742,9.969,40.644,19.172c0,0,16.871-10.736,26.073-9.2l9.2,1.534-28.374,25.307L578.186,406.3Z" transform="translate(-340.841 -170.401)" fill="#f2f2f2"/>
      <path id="Path_82" data-name="Path 82" d="M552.823,372.557l-31.442,43.711,45.245,22.239s4.23,2.3,7.483,0L604.2,424.7l28.374-40.644L604.2,398.63s-3.067-6.135-9.2-3.067Z" transform="translate(-330.816 -170.401)" fill="#25a6df"/>
      <path id="Path_83" data-name="Path 83" d="M624.216,460.315l6.135-16.1s13.8-17.638,6.135-26.073-16.1,24.54-16.1,24.54Z" transform="translate(-353.896 -180.706)" fill="#a0616a"/>
      <path id="Path_84" data-name="Path 84" d="M533.079,460.1l13.387-10.853s20.79-8.332,18.388-19.476-26.243,13.148-26.243,13.148Z" transform="translate(-333.543 -183.057)" fill="#a0616a"/>
      <path id="Path_85" data-name="Path 85" d="M484.309,367.521h-.767s-11.886-14.187-14.187,4.985-9.969,82.821,9.969,85.122,34.125-9.586,34.125-9.586,14.57-22.239,9.2-22.239c-2.6,0-9.661-1.167-16.1-.767-6.873.426-13.049,2.363-12.653.383C494.662,421.585,505.781,372.889,484.309,367.521Z" transform="translate(-317.899 -168.049)" opacity="0.1"/>
      <path id="Path_86" data-name="Path 86" d="M481.993,349.091l-3.068-1.534s-12.27,2.3-14.57,21.472-9.969,82.821,9.969,85.122,46.779-3.067,46.779-3.067,5.368-29.141,0-29.141-32.975,3.834-32.208,0S503.465,354.459,481.993,349.091Z" transform="translate(-316.733 -164.573)" fill="#488d7c"/>
      <path id="Path_87" data-name="Path 87" d="M338,349.174l8.456-12.961,5.347,21.4L338,363.744Z" transform="translate(-78.8 -78.383)" fill="#575a89"/>
      <circle id="Ellipse_12" data-name="Ellipse 12" cx="20.705" cy="20.705" r="20.705" transform="translate(115.779 26.565)" fill="#f2f2f2"/>
      <rect id="Rectangle_2" data-name="Rectangle 2" width="49.079" height="49.079" transform="translate(60.945 219.41)" fill="#f2f2f2"/>
      <path id="Path_88" data-name="Path 88" d="M364.447,0l12.422,21.516,12.422,21.516H339.6l12.422-21.516Z" transform="translate(-77.174 22)" fill="#f2f2f2"/>
      <path id="Path_89" data-name="Path 89" d="M898.359,258.593q-.445,13.769-6.706,22.073t-14.878,8.305q-7.018,0-12.3-8.128t-5.285-25q0-3.731.178-7.106t.444-6.4l3.109-29.224H842.4q-5.329,55.427-8.749,65.953t-11.592,10.526a9.8,9.8,0,0,1-6.573-2.754,9.252,9.252,0,0,1-3.109-7.284q0-4.084,6.44-11.414t7.151-13.368l5.33-41.659H822.68a15.269,15.269,0,0,0-6.973,1.732,13.157,13.157,0,0,0-5.019,4.042l-3.82,5.685h-3.11q4.351-13.5,10.7-20.3t14.612-6.8h67.863v15.633H874.021q-1.066,10.659-1.643,21.318T871.8,255.84q0,7.284,3.375,11.814a10.163,10.163,0,0,0,8.438,4.53,11.112,11.112,0,0,0,6.529-2.532,9.179,9.179,0,0,0,3.864-6.617q.267-1.953.4-3.065t.133-1.377Z" transform="translate(-396.648 -129.585)" fill="#6c63ff"/>
      <path id="Path_90" data-name="Path 90" d="M898.359,258.593q-.445,13.769-6.706,22.073t-14.878,8.305q-7.018,0-12.3-8.128t-5.285-25q0-3.731.178-7.106t.444-6.4l3.109-29.224H842.4q-5.329,55.427-8.749,65.953t-11.592,10.526a9.8,9.8,0,0,1-6.573-2.754,9.252,9.252,0,0,1-3.109-7.284q0-4.084,6.44-11.414t7.151-13.368l5.33-41.659H822.68a15.269,15.269,0,0,0-6.973,1.732,13.157,13.157,0,0,0-5.019,4.042l-3.82,5.685h-3.11q4.351-13.5,10.7-20.3t14.612-6.8h67.863v15.633H874.021q-1.066,10.659-1.643,21.318T871.8,255.84q0,7.284,3.375,11.814a10.163,10.163,0,0,0,8.438,4.53,11.112,11.112,0,0,0,6.529-2.532,9.179,9.179,0,0,0,3.864-6.617q.267-1.953.4-3.065t.133-1.377Z" transform="translate(-396.648 -129.585)" fill="#1a80ae"/>
      <path id="Path_91" data-name="Path 91" d="M898.359,254.974q-.445,13.769-6.706,22.073t-14.878,8.305q-7.018,0-12.3-8.128t-5.285-25q0-3.731.178-7.106t.444-6.4l3.109-29.224H842.4q-5.329,55.427-8.749,65.953t-11.592,10.526a9.8,9.8,0,0,1-6.573-2.754,9.252,9.252,0,0,1-3.109-7.284q0-4.084,6.44-11.414t7.151-13.368L831.3,209.5H822.68a15.269,15.269,0,0,0-6.973,1.732,13.155,13.155,0,0,0-5.019,4.042l-3.82,5.685h-3.11q4.351-13.5,10.7-20.3t14.612-6.8h67.863V209.5H874.021q-1.066,10.659-1.643,21.318t-.577,21.407q0,7.284,3.375,11.814a10.163,10.163,0,0,0,8.438,4.53,11.112,11.112,0,0,0,6.529-2.532,9.179,9.179,0,0,0,3.864-6.617q.267-1.953.4-3.065t.133-1.377Z" transform="translate(-396.648 -128.741)" fill="#25a6df"/>
      <g id="Polygon_1" data-name="Polygon 1" transform="translate(31 108)" fill="#fff">
        <path d="M 35.23579025268555 40.5 L 8.764212608337402 40.5 L 0.5908355116844177 15.85377407073975 L 22.00000190734863 0.6137468218803406 L 43.4091682434082 15.85377407073975 L 35.23579025268555 40.5 Z" stroke="none"/>
        <path d="M 22.00000190734863 1.227481842041016 L 1.181671142578125 16.04692649841309 L 9.125179290771484 40 L 34.87482452392578 40 L 42.81833267211914 16.04692649841309 L 22.00000190734863 1.227481842041016 M 22.00000190734863 0 L 44 15.66061019897461 L 35.59675216674805 41 L 8.403251647949219 41 L 3.814697265625e-06 15.66061019897461 L 22.00000190734863 0 Z" stroke="none" fill="#707070"/>
      </g>
    </g>
  </g>
</svg>
