<svg xmlns="http://www.w3.org/2000/svg" xmlns:xlink="http://www.w3.org/1999/xlink" width="435" height="385" viewBox="0 0 435 385">
  <defs>
    <clipPath id="clip-path">
      <rect id="Rectangle_39" data-name="Rectangle 39" width="435" height="385" transform="translate(0.467 -0.123)" fill="#fff" stroke="#707070" stroke-width="1"/>
    </clipPath>
  </defs>
  <g id="Mask_Group_3" data-name="Mask Group 3" transform="translate(-0.467 0.123)" clip-path="url(#clip-path)">
    <g id="Group_1" data-name="Group 1" transform="translate(7.768 7.768)">
      <ellipse id="Ellipse_1" data-name="Ellipse 1" cx="23" cy="23.5" rx="23" ry="23.5" transform="translate(373.699 62.109)" fill="#ccc" opacity="0.3"/>
      <circle id="Ellipse_2" data-name="Ellipse 2" cx="13" cy="13" r="13" transform="translate(382.699 72.109)" fill="#ffc107"/>
      <ellipse id="Ellipse_3" data-name="Ellipse 3" cx="22.5" cy="22" rx="22.5" ry="22" transform="translate(358.699 0.109)" fill="#ccc" opacity="0.3"/>
      <circle id="Ellipse_4" data-name="Ellipse 4" cx="12.5" cy="12.5" r="12.5" transform="translate(368.699 9.109)" fill="#ffc107"/>
      <circle id="Ellipse_5" data-name="Ellipse 5" cx="23" cy="23" r="23" transform="translate(-0.301 85.109)" fill="#ccc" opacity="0.3"/>
      <circle id="Ellipse_6" data-name="Ellipse 6" cx="13" cy="13" r="13" transform="translate(10.699 95.109)" fill="#ffc107"/>
      <ellipse id="Ellipse_7" data-name="Ellipse 7" cx="22.5" cy="23.5" rx="22.5" ry="23.5" transform="translate(20.699 263.109)" fill="#ccc" opacity="0.3"/>
      <ellipse id="Ellipse_8" data-name="Ellipse 8" cx="13" cy="12.5" rx="13" ry="12.5" transform="translate(30.699 273.109)" fill="#ffc107"/>
      <ellipse id="Ellipse_9" data-name="Ellipse 9" cx="23" cy="22.5" rx="23" ry="22.5" transform="translate(51.699 20.109)" fill="#ccc" opacity="0.3"/>
      <ellipse id="Ellipse_10" data-name="Ellipse 10" cx="13.5" cy="12.5" rx="13.5" ry="12.5" transform="translate(60.699 29.109)" fill="#ffc107"/>
      <path id="Path_1" data-name="Path 1" d="M568.165,275.583a157.631,157.631,0,0,1-128.225,154.85c-.285.056-.574.108-.863.16q-6.806,1.25-13.815,1.9c-.289.03-.574.056-.863.078q-6.826.6-13.815.6c-.289,0-.574,0-.863,0q-6.981-.032-13.816-.674c-.289-.022-.574-.052-.863-.082q-7-.68-13.815-1.973c-.289-.052-.579-.108-.863-.164a157.6,157.6,0,1,1,187.8-154.686Z" transform="translate(-193.063 -90.39)" fill="#3f3d56"/>
      <rect id="Rectangle_1" data-name="Rectangle 1" width="0.863" height="128.009" transform="translate(246.446 117.626)" fill="#ffc107"/>
      <rect id="Rectangle_2" data-name="Rectangle 2" width="0.863" height="37.764" transform="translate(246.446 62.754)" fill="#ffc107"/>
      <rect id="Rectangle_3" data-name="Rectangle 3" width="0.863" height="186.822" transform="translate(187.298 58.813)" fill="#ffc107"/>
      <rect id="Rectangle_4" data-name="Rectangle 4" width="0.863" height="42.075" transform="translate(201.977 42.289)" fill="#ffc107"/>
      <rect id="Rectangle_5" data-name="Rectangle 5" width="0.863" height="128.068" transform="translate(201.977 104.458)" fill="#ffc107"/>
      <path id="Path_2" data-name="Path 2" d="M582.863,638.75v89.662c-.289-.022-.574-.052-.863-.082V638.75Z" transform="translate(-380.023 -386.315)" fill="#ffc107"/>
      <rect id="Rectangle_6" data-name="Rectangle 6" width="0.863" height="118.876" transform="translate(216.656 28.473)" fill="#ffc107"/>
      <path id="Path_3" data-name="Path 3" d="M616.863,433.52V612.465c-.289,0-.574,0-.864,0V433.52Z" transform="translate(-399.344 -269.69)" fill="#ffc107"/>
      <rect id="Rectangle_7" data-name="Rectangle 7" width="1" height="164" transform="translate(230.699 42.109)" fill="#ffc107"/>
      <rect id="Rectangle_8" data-name="Rectangle 8" width="0.863" height="92.466" transform="translate(231.335 224.912)" fill="#ffc107"/>
      <path id="Path_4" data-name="Path 4" d="M650.863,834.53v5.138c-.289.03-.574.056-.863.078V834.53Z" transform="translate(-418.665 -497.57)" fill="#ffc107"/>
      <path id="Path_5" data-name="Path 5" d="M684.863,675v71.957c-.285.056-.574.108-.863.16V675Z" transform="translate(-437.986 -406.915)" fill="#ffc107"/>
      <path id="Path_6" data-name="Path 6" d="M548.863,675v71.957c-.289-.052-.579-.108-.863-.164V675Z" transform="translate(-360.702 -406.915)" fill="#ffc107"/>
      <rect id="Rectangle_9" data-name="Rectangle 9" width="0.863" height="26.944" transform="translate(172.619 75.532)" fill="#ffc107"/>
      <rect id="Rectangle_10" data-name="Rectangle 10" width="0.863" height="122.925" transform="translate(172.619 122.71)" fill="#ffc107"/>
      <rect id="Rectangle_11" data-name="Rectangle 11" width="1" height="160" transform="translate(157.699 85.109)" fill="#ffc107"/>
      <rect id="Rectangle_12" data-name="Rectangle 12" width="0.863" height="52.199" transform="translate(143.261 98.414)" fill="#ffc107"/>
      <rect id="Rectangle_13" data-name="Rectangle 13" width="0.863" height="77.726" transform="translate(143.261 167.909)" fill="#ffc107"/>
      <rect id="Rectangle_14" data-name="Rectangle 14" width="0.863" height="87.01" transform="translate(128.583 112.23)" fill="#ffc107"/>
      <rect id="Rectangle_15" data-name="Rectangle 15" width="1" height="30" transform="translate(128.699 215.109)" fill="#ffc107"/>
      <rect id="Rectangle_16" data-name="Rectangle 16" width="0.863" height="29.185" transform="translate(113.904 125.182)" fill="#ffc107"/>
      <rect id="Rectangle_17" data-name="Rectangle 17" width="0.863" height="72.178" transform="translate(113.904 173.457)" fill="#ffc107"/>
      <rect id="Rectangle_18" data-name="Rectangle 18" width="1" height="113" transform="translate(98.699 132.109)" fill="#ffc107"/>
      <rect id="Rectangle_19" data-name="Rectangle 19" width="0.863" height="37.534" transform="translate(84.546 163.174)" fill="#ffc107"/>
      <rect id="Rectangle_20" data-name="Rectangle 20" width="0.863" height="27.794" transform="translate(84.546 217.841)" fill="#ffc107"/>
      <rect id="Rectangle_21" data-name="Rectangle 21" width="0.448" height="162.763" transform="translate(255.242 75.532)" fill="#ffc107"/>
      <rect id="Rectangle_22" data-name="Rectangle 22" width="0.863" height="25.663" transform="translate(275.372 85.462)" fill="#ffc107"/>
      <rect id="Rectangle_23" data-name="Rectangle 23" width="0.863" height="117.377" transform="translate(275.372 128.258)" fill="#ffc107"/>
      <rect id="Rectangle_24" data-name="Rectangle 24" width="1" height="15" transform="translate(289.699 110.109)" fill="#ffc107"/>
      <rect id="Rectangle_25" data-name="Rectangle 25" width="0.863" height="75.06" transform="translate(290.051 142.128)" fill="#ffc107"/>
      <rect id="Rectangle_26" data-name="Rectangle 26" width="0.863" height="13.108" transform="translate(290.051 232.527)" fill="#ffc107"/>
      <rect id="Rectangle_27" data-name="Rectangle 27" height="133" transform="translate(304.699 112.109)" fill="#ffc107"/>
      <rect id="Rectangle_28" data-name="Rectangle 28" width="0.863" height="42.728" transform="translate(319.409 125.182)" fill="#ffc107"/>
      <rect id="Rectangle_29" data-name="Rectangle 29" width="0.863" height="61.571" transform="translate(319.409 184.064)" fill="#ffc107"/>
      <rect id="Rectangle_30" data-name="Rectangle 30" width="1" height="113" transform="translate(333.699 132.109)" fill="#ffc107"/>
      <path id="Path_7" data-name="Path 7" d="M543.317,664.635a4.317,4.317,0,1,1,4.317-4.317A4.317,4.317,0,0,1,543.317,664.635Zm0-7.771a3.454,3.454,0,1,0,3.454,3.454A3.454,3.454,0,0,0,543.317,656.863Z" transform="translate(-355.587 -396.118)" fill="#ffc107"/>
      <path id="Path_8" data-name="Path 8" d="M577.317,612.635a4.317,4.317,0,1,1,4.317-4.317A4.317,4.317,0,0,1,577.317,612.635Zm0-7.771a3.454,3.454,0,1,0,3.454,3.454A3.454,3.454,0,0,0,577.317,604.863Z" transform="translate(-374.908 -366.568)" fill="#ffc107"/>
      <path id="Path_9" data-name="Path 9" d="M680.317,664.635a4.317,4.317,0,1,1,4.317-4.317A4.317,4.317,0,0,1,680.317,664.635Zm0-7.771a3.454,3.454,0,1,0,3.454,3.454A3.454,3.454,0,0,0,680.317,656.863Z" transform="translate(-433.44 -396.118)" fill="#ffc107"/>
      <path id="Path_10" data-name="Path 10" d="M645.317,801a4.317,4.317,0,1,0,4.317,4.317A4.317,4.317,0,0,0,645.317,801Zm0,7.771a3.454,3.454,0,1,1,3.454-3.454A3.454,3.454,0,0,1,645.317,808.771Z" transform="translate(-413.55 -478.516)" fill="#ffc107"/>
      <path id="Path_11" data-name="Path 11" d="M645.317,551.635a4.317,4.317,0,1,1,4.317-4.317A4.317,4.317,0,0,1,645.317,551.635Zm0-7.771a3.454,3.454,0,1,0,3.454,3.454A3.454,3.454,0,0,0,645.317,543.863Z" transform="translate(-413.55 -331.903)" fill="#ffc107"/>
      <path id="Path_12" data-name="Path 12" d="M611.317,412.635a4.317,4.317,0,1,1,4.317-4.317,4.317,4.317,0,0,1-4.317,4.317Z" transform="translate(-394.229 -252.914)" fill="#ffc107"/>
      <path id="Path_13" data-name="Path 13" d="M679.317,303.635a4.317,4.317,0,1,1,4.317-4.317A4.317,4.317,0,0,1,679.317,303.635Zm0-7.771a3.454,3.454,0,1,0,3.454,3.454A3.454,3.454,0,0,0,679.317,295.863Z" transform="translate(-432.872 -190.973)" fill="#ffc107"/>
      <path id="Path_14" data-name="Path 14" d="M441.317,421.635a4.317,4.317,0,1,1,4.317-4.317,4.317,4.317,0,0,1-4.317,4.317Zm0-7.771a3.454,3.454,0,1,0,3.454,3.454A3.454,3.454,0,0,0,441.317,413.863Z" transform="translate(-297.624 -258.029)" fill="#ffc107"/>
      <path id="Path_15" data-name="Path 15" d="M373.317,430.635a4.317,4.317,0,1,1,4.317-4.317A4.317,4.317,0,0,1,373.317,430.635Zm0-7.771a3.454,3.454,0,1,0,3.454,3.454A3.454,3.454,0,0,0,373.317,422.863Z" transform="translate(-258.982 -263.143)" fill="#ffc107"/>
      <path id="Path_16" data-name="Path 16" d="M407.317,532.635a4.317,4.317,0,1,1,4.317-4.317A4.317,4.317,0,0,1,407.317,532.635Z" transform="translate(-278.303 -321.106)" fill="#ffc107"/>
      <path id="Path_17" data-name="Path 17" d="M680.317,188.635a4.317,4.317,0,1,1,4.317-4.317A4.317,4.317,0,0,1,680.317,188.635Zm0-7.771a3.454,3.454,0,1,0,3.454,3.454A3.454,3.454,0,0,0,680.317,180.863Z" transform="translate(-433.44 -125.623)" fill="#ffc107"/>
      <path id="Path_18" data-name="Path 18" d="M509.317,312.635a4.317,4.317,0,1,1,4.317-4.317A4.317,4.317,0,0,1,509.317,312.635Zm0-7.771a3.454,3.454,0,1,0,3.454,3.454A3.454,3.454,0,0,0,509.317,304.863Z" transform="translate(-336.266 -196.088)" fill="#ffc107"/>
      <path id="Path_19" data-name="Path 19" d="M475.317,241.635a4.317,4.317,0,1,1,4.317-4.317A4.317,4.317,0,0,1,475.317,241.635Zm0-7.771a3.454,3.454,0,1,0,3.454,3.454A3.454,3.454,0,0,0,475.317,233.863Z" transform="translate(-316.945 -155.741)" fill="#ffc107"/>
      <path id="Path_20" data-name="Path 20" d="M305.317,537.635a4.317,4.317,0,1,1,4.317-4.317A4.317,4.317,0,0,1,305.317,537.635Zm0-7.771a3.454,3.454,0,1,0,3.454,3.454A3.454,3.454,0,0,0,305.317,529.863Z" transform="translate(-220.34 -323.948)" fill="#ffc107"/>
      <rect id="Rectangle_31" data-name="Rectangle 31" width="0.863" height="37.534" transform="translate(347.471 163.174)" fill="#ffc107"/>
      <rect id="Rectangle_32" data-name="Rectangle 32" width="0.863" height="27.794" transform="translate(347.471 217.841)" fill="#ffc107"/>
      <path id="Path_21" data-name="Path 21" d="M914.317,537.635a4.317,4.317,0,1,1,4.317-4.317A4.317,4.317,0,0,1,914.317,537.635Zm0-7.771a3.454,3.454,0,1,0,3.454,3.454A3.454,3.454,0,0,0,914.317,529.863Z" transform="translate(-566.414 -323.948)" fill="#ffc107"/>
      <path id="Path_22" data-name="Path 22" d="M849.317,458.635a4.317,4.317,0,1,1,4.317-4.317A4.317,4.317,0,0,1,849.317,458.635Zm0-7.771a3.454,3.454,0,1,0,3.454,3.454A3.454,3.454,0,0,0,849.317,450.863Z" transform="translate(-529.477 -279.055)" fill="#ffc107"/>
      <path id="Path_23" data-name="Path 23" d="M781.317,573.635a4.317,4.317,0,1,1,4.317-4.317,4.317,4.317,0,0,1-4.317,4.317Zm0-7.771a3.454,3.454,0,1,0,3.454,3.454A3.454,3.454,0,0,0,781.317,565.863Z" transform="translate(-490.835 -344.405)" fill="#ffc107"/>
      <path id="Path_24" data-name="Path 24" d="M577.317,271.635a4.317,4.317,0,1,1,4.317-4.317A4.317,4.317,0,0,1,577.317,271.635Z" transform="translate(-374.908 -172.789)" fill="#ffc107"/>
      <path id="Path_25" data-name="Path 25" d="M781.317,362.635a4.317,4.317,0,1,1,4.317-4.317A4.317,4.317,0,0,1,781.317,362.635Zm0-7.771a3.454,3.454,0,1,0,3.454,3.454A3.454,3.454,0,0,0,781.317,354.863Z" transform="translate(-490.835 -224.501)" fill="#ffc107"/>
      <path id="Path_26" data-name="Path 26" d="M849.317,333.635a4.317,4.317,0,1,1,4.317-4.317A4.317,4.317,0,0,1,849.317,333.635Z" transform="translate(-529.477 -208.021)" fill="#ffc107"/>
      <path id="Path_27" data-name="Path 27" d="M747.317,328.635a4.317,4.317,0,1,1,4.317-4.317A4.317,4.317,0,0,1,747.317,328.635Z" transform="translate(-471.514 -205.18)" fill="#ffc107"/>
      <path id="Path_28" data-name="Path 28" d="M816.271,238l-77.288-1.3.015-.863,76.409,1.288V200h.863Z" transform="translate(-419.582 -114.538)" fill="#2f2e41"/>
      <path id="Path_29" data-name="Path 29" d="M637.874,149.738l-.8-.333L677.771,52h65.048v.863H678.346Z" transform="translate(-361.672 -30.434)" fill="#2f2e41"/>
      <path id="Path_30" data-name="Path 30" d="M246.712,301.059H52V254h.863v46.2H246.712Z" transform="translate(-29.192 -145.224)" fill="#2f2e41"/>
      <path id="Path_31" data-name="Path 31" d="M298.088,152.671H169V100h.863v51.808H298.088Z" transform="translate(-95.679 -57.711)" fill="#2f2e41"/>
      <path id="Path_32" data-name="Path 32" d="M185.915,560.871H100v-.864h85.051V481h.863Z" transform="translate(-56.469 -274.221)" fill="#2f2e41"/>
    </g>
  </g>
</svg>
